<mxfile host="65bd71144e">
    <diagram id="XBt4q7XT0UcdgRGv-cOV" name="Page-1">
        <mxGraphModel dx="736" dy="406" grid="1" gridSize="10" guides="1" tooltips="1" connect="1" arrows="1" fold="1" page="1" pageScale="1" pageWidth="827" pageHeight="1169" math="0" shadow="0">
            <root>
                <mxCell id="0"/>
                <mxCell id="1" parent="0"/>
                <mxCell id="2" value="" style="rounded=0;whiteSpace=wrap;html=1;fillColor=#FFFFFF;" vertex="1" parent="1">
                    <mxGeometry x="40" y="40" width="840" height="400" as="geometry"/>
                </mxCell>
                <mxCell id="3" value="&lt;font color=&quot;#000000&quot;&gt;00:11:22&lt;/font&gt;" style="text;html=1;strokeColor=none;fillColor=none;align=center;verticalAlign=middle;whiteSpace=wrap;rounded=0;" vertex="1" parent="1">
                    <mxGeometry x="130" y="60" width="60" height="30" as="geometry"/>
                </mxCell>
                <mxCell id="4" value="&lt;font color=&quot;#000000&quot;&gt;01/02/2003&lt;/font&gt;" style="text;html=1;strokeColor=none;fillColor=none;align=center;verticalAlign=middle;whiteSpace=wrap;rounded=0;" vertex="1" parent="1">
                    <mxGeometry x="200" y="60" width="60" height="30" as="geometry"/>
                </mxCell>
                <mxCell id="5" value="" style="rounded=0;whiteSpace=wrap;html=1;fontColor=#000000;fillColor=#FFFFFF;strokeColor=#000000;" vertex="1" parent="1">
                    <mxGeometry x="693" y="100" width="157" height="330" as="geometry"/>
                </mxCell>
                <mxCell id="9" value="" style="shape=table;html=1;whiteSpace=wrap;startSize=0;container=1;collapsible=0;childLayout=tableLayout;fontColor=#000000;strokeColor=#000000;fillColor=#FFFFFF;fontSize=5;" vertex="1" parent="1">
                    <mxGeometry x="50" y="100" width="616" height="300" as="geometry"/>
                </mxCell>
                <mxCell id="10" value="" style="shape=partialRectangle;html=1;whiteSpace=wrap;collapsible=0;dropTarget=0;pointerEvents=0;fillColor=none;top=0;left=0;bottom=0;right=0;points=[[0,0.5],[1,0.5]];portConstraint=eastwest;fontColor=#000000;strokeColor=#000000;fontSize=5;" vertex="1" parent="9">
                    <mxGeometry width="616" height="37" as="geometry"/>
                </mxCell>
                <mxCell id="11" value="" style="shape=partialRectangle;html=1;whiteSpace=wrap;connectable=0;fillColor=none;top=0;left=0;bottom=0;right=0;overflow=hidden;pointerEvents=1;fontColor=#000000;strokeColor=#000000;fontSize=5;" vertex="1" parent="10">
                    <mxGeometry width="24" height="37" as="geometry">
                        <mxRectangle width="24" height="37" as="alternateBounds"/>
                    </mxGeometry>
                </mxCell>
                <mxCell id="12" value="0000" style="shape=partialRectangle;html=1;whiteSpace=wrap;connectable=0;fillColor=none;top=0;left=0;bottom=0;right=0;overflow=hidden;pointerEvents=1;fontColor=#000000;strokeColor=#000000;fontSize=5;" vertex="1" parent="10">
                    <mxGeometry x="24" width="27" height="37" as="geometry">
                        <mxRectangle width="27" height="37" as="alternateBounds"/>
                    </mxGeometry>
                </mxCell>
                <mxCell id="13" value="0100" style="shape=partialRectangle;html=1;whiteSpace=wrap;connectable=0;fillColor=none;top=0;left=0;bottom=0;right=0;overflow=hidden;pointerEvents=1;fontColor=#000000;strokeColor=#000000;fontSize=5;" vertex="1" parent="10">
                    <mxGeometry x="51" width="25" height="37" as="geometry">
                        <mxRectangle width="25" height="37" as="alternateBounds"/>
                    </mxGeometry>
                </mxCell>
                <mxCell id="28" value="0200" style="shape=partialRectangle;html=1;whiteSpace=wrap;connectable=0;fillColor=none;top=0;left=0;bottom=0;right=0;overflow=hidden;pointerEvents=1;fontColor=#000000;strokeColor=#000000;fontSize=5;" vertex="1" parent="10">
                    <mxGeometry x="76" width="24" height="37" as="geometry">
                        <mxRectangle width="24" height="37" as="alternateBounds"/>
                    </mxGeometry>
                </mxCell>
                <mxCell id="25" value="0300" style="shape=partialRectangle;html=1;whiteSpace=wrap;connectable=0;fillColor=none;top=0;left=0;bottom=0;right=0;overflow=hidden;pointerEvents=1;fontColor=#000000;strokeColor=#000000;fontSize=5;" vertex="1" parent="10">
                    <mxGeometry x="100" width="25" height="37" as="geometry">
                        <mxRectangle width="25" height="37" as="alternateBounds"/>
                    </mxGeometry>
                </mxCell>
                <mxCell id="22" value="0400" style="shape=partialRectangle;html=1;whiteSpace=wrap;connectable=0;fillColor=none;top=0;left=0;bottom=0;right=0;overflow=hidden;pointerEvents=1;fontColor=#000000;strokeColor=#000000;fontSize=5;" vertex="1" parent="10">
                    <mxGeometry x="125" width="25" height="37" as="geometry">
                        <mxRectangle width="25" height="37" as="alternateBounds"/>
                    </mxGeometry>
                </mxCell>
                <mxCell id="89" value="0500" style="shape=partialRectangle;html=1;whiteSpace=wrap;connectable=0;fillColor=none;top=0;left=0;bottom=0;right=0;overflow=hidden;pointerEvents=1;fontColor=#000000;strokeColor=#000000;fontSize=5;" vertex="1" parent="10">
                    <mxGeometry x="150" width="24" height="37" as="geometry">
                        <mxRectangle width="24" height="37" as="alternateBounds"/>
                    </mxGeometry>
                </mxCell>
                <mxCell id="81" value="0600" style="shape=partialRectangle;html=1;whiteSpace=wrap;connectable=0;fillColor=none;top=0;left=0;bottom=0;right=0;overflow=hidden;pointerEvents=1;fontColor=#000000;strokeColor=#000000;fontSize=5;" vertex="1" parent="10">
                    <mxGeometry x="174" width="26" height="37" as="geometry">
                        <mxRectangle width="26" height="37" as="alternateBounds"/>
                    </mxGeometry>
                </mxCell>
                <mxCell id="73" value="0700" style="shape=partialRectangle;html=1;whiteSpace=wrap;connectable=0;fillColor=none;top=0;left=0;bottom=0;right=0;overflow=hidden;pointerEvents=1;fontColor=#000000;strokeColor=#000000;fontSize=5;" vertex="1" parent="10">
                    <mxGeometry x="200" width="27" height="37" as="geometry">
                        <mxRectangle width="27" height="37" as="alternateBounds"/>
                    </mxGeometry>
                </mxCell>
                <mxCell id="137" value="0800" style="shape=partialRectangle;html=1;whiteSpace=wrap;connectable=0;fillColor=none;top=0;left=0;bottom=0;right=0;overflow=hidden;pointerEvents=1;fontColor=#000000;strokeColor=#000000;fontSize=5;" vertex="1" parent="10">
                    <mxGeometry x="227" width="25" height="37" as="geometry">
                        <mxRectangle width="25" height="37" as="alternateBounds"/>
                    </mxGeometry>
                </mxCell>
                <mxCell id="129" value="0900" style="shape=partialRectangle;html=1;whiteSpace=wrap;connectable=0;fillColor=none;top=0;left=0;bottom=0;right=0;overflow=hidden;pointerEvents=1;fontColor=#000000;strokeColor=#000000;fontSize=5;" vertex="1" parent="10">
                    <mxGeometry x="252" width="23" height="37" as="geometry">
                        <mxRectangle width="23" height="37" as="alternateBounds"/>
                    </mxGeometry>
                </mxCell>
                <mxCell id="121" value="1000" style="shape=partialRectangle;html=1;whiteSpace=wrap;connectable=0;fillColor=none;top=0;left=0;bottom=0;right=0;overflow=hidden;pointerEvents=1;fontColor=#000000;strokeColor=#000000;fontSize=5;" vertex="1" parent="10">
                    <mxGeometry x="275" width="24" height="37" as="geometry">
                        <mxRectangle width="24" height="37" as="alternateBounds"/>
                    </mxGeometry>
                </mxCell>
                <mxCell id="113" value="1100" style="shape=partialRectangle;html=1;whiteSpace=wrap;connectable=0;fillColor=none;top=0;left=0;bottom=0;right=0;overflow=hidden;pointerEvents=1;fontColor=#000000;strokeColor=#000000;fontSize=5;" vertex="1" parent="10">
                    <mxGeometry x="299" width="24" height="37" as="geometry">
                        <mxRectangle width="24" height="37" as="alternateBounds"/>
                    </mxGeometry>
                </mxCell>
                <mxCell id="105" value="1200" style="shape=partialRectangle;html=1;whiteSpace=wrap;connectable=0;fillColor=none;top=0;left=0;bottom=0;right=0;overflow=hidden;pointerEvents=1;fontColor=#000000;strokeColor=#000000;fontSize=5;" vertex="1" parent="10">
                    <mxGeometry x="323" width="25" height="37" as="geometry">
                        <mxRectangle width="25" height="37" as="alternateBounds"/>
                    </mxGeometry>
                </mxCell>
                <mxCell id="97" value="1300" style="shape=partialRectangle;html=1;whiteSpace=wrap;connectable=0;fillColor=none;top=0;left=0;bottom=0;right=0;overflow=hidden;pointerEvents=1;fontColor=#000000;strokeColor=#000000;fontSize=5;" vertex="1" parent="10">
                    <mxGeometry x="348" width="24" height="37" as="geometry">
                        <mxRectangle width="24" height="37" as="alternateBounds"/>
                    </mxGeometry>
                </mxCell>
                <mxCell id="206" value="1400" style="shape=partialRectangle;html=1;whiteSpace=wrap;connectable=0;fillColor=none;top=0;left=0;bottom=0;right=0;overflow=hidden;pointerEvents=1;fontColor=#000000;strokeColor=#000000;fontSize=5;" vertex="1" parent="10">
                    <mxGeometry x="372" width="25" height="37" as="geometry">
                        <mxRectangle width="25" height="37" as="alternateBounds"/>
                    </mxGeometry>
                </mxCell>
                <mxCell id="177" value="1500&lt;span style=&quot;white-space: pre; font-size: 5px;&quot;&gt;&#9;&lt;/span&gt;" style="shape=partialRectangle;html=1;whiteSpace=wrap;connectable=0;fillColor=none;top=0;left=0;bottom=0;right=0;overflow=hidden;pointerEvents=1;fontColor=#000000;strokeColor=#000000;fontSize=5;" vertex="1" parent="10">
                    <mxGeometry x="397" width="25" height="37" as="geometry">
                        <mxRectangle width="25" height="37" as="alternateBounds"/>
                    </mxGeometry>
                </mxCell>
                <mxCell id="169" value="1600" style="shape=partialRectangle;html=1;whiteSpace=wrap;connectable=0;fillColor=none;top=0;left=0;bottom=0;right=0;overflow=hidden;pointerEvents=1;fontColor=#000000;strokeColor=#000000;fontSize=5;" vertex="1" parent="10">
                    <mxGeometry x="422" width="23" height="37" as="geometry">
                        <mxRectangle width="23" height="37" as="alternateBounds"/>
                    </mxGeometry>
                </mxCell>
                <mxCell id="161" value="1700" style="shape=partialRectangle;html=1;whiteSpace=wrap;connectable=0;fillColor=none;top=0;left=0;bottom=0;right=0;overflow=hidden;pointerEvents=1;fontColor=#000000;strokeColor=#000000;fontSize=5;" vertex="1" parent="10">
                    <mxGeometry x="445" width="24" height="37" as="geometry">
                        <mxRectangle width="24" height="37" as="alternateBounds"/>
                    </mxGeometry>
                </mxCell>
                <mxCell id="153" value="1800" style="shape=partialRectangle;html=1;whiteSpace=wrap;connectable=0;fillColor=none;top=0;left=0;bottom=0;right=0;overflow=hidden;pointerEvents=1;fontColor=#000000;strokeColor=#000000;fontSize=5;" vertex="1" parent="10">
                    <mxGeometry x="469" width="23" height="37" as="geometry">
                        <mxRectangle width="23" height="37" as="alternateBounds"/>
                    </mxGeometry>
                </mxCell>
                <mxCell id="230" value="1900" style="shape=partialRectangle;html=1;whiteSpace=wrap;connectable=0;fillColor=none;top=0;left=0;bottom=0;right=0;overflow=hidden;pointerEvents=1;fontColor=#000000;strokeColor=#000000;fontSize=5;" vertex="1" parent="10">
                    <mxGeometry x="492" width="24" height="37" as="geometry">
                        <mxRectangle width="24" height="37" as="alternateBounds"/>
                    </mxGeometry>
                </mxCell>
                <mxCell id="238" value="2000" style="shape=partialRectangle;html=1;whiteSpace=wrap;connectable=0;fillColor=none;top=0;left=0;bottom=0;right=0;overflow=hidden;pointerEvents=1;fontColor=#000000;strokeColor=#000000;fontSize=5;" vertex="1" parent="10">
                    <mxGeometry x="516" width="25" height="37" as="geometry">
                        <mxRectangle width="25" height="37" as="alternateBounds"/>
                    </mxGeometry>
                </mxCell>
                <mxCell id="246" value="2100" style="shape=partialRectangle;html=1;whiteSpace=wrap;connectable=0;fillColor=none;top=0;left=0;bottom=0;right=0;overflow=hidden;pointerEvents=1;fontColor=#000000;strokeColor=#000000;fontSize=5;" vertex="1" parent="10">
                    <mxGeometry x="541" width="27" height="37" as="geometry">
                        <mxRectangle width="27" height="37" as="alternateBounds"/>
                    </mxGeometry>
                </mxCell>
                <mxCell id="145" value="2200" style="shape=partialRectangle;html=1;whiteSpace=wrap;connectable=0;fillColor=none;top=0;left=0;bottom=0;right=0;overflow=hidden;pointerEvents=1;fontColor=#000000;strokeColor=#000000;fontSize=5;" vertex="1" parent="10">
                    <mxGeometry x="568" width="23" height="37" as="geometry">
                        <mxRectangle width="23" height="37" as="alternateBounds"/>
                    </mxGeometry>
                </mxCell>
                <mxCell id="222" value="2300" style="shape=partialRectangle;html=1;whiteSpace=wrap;connectable=0;fillColor=none;top=0;left=0;bottom=0;right=0;overflow=hidden;pointerEvents=1;fontColor=#000000;strokeColor=#000000;fontSize=5;" vertex="1" parent="10">
                    <mxGeometry x="591" width="25" height="37" as="geometry">
                        <mxRectangle width="25" height="37" as="alternateBounds"/>
                    </mxGeometry>
                </mxCell>
                <mxCell id="66" style="shape=partialRectangle;html=1;whiteSpace=wrap;collapsible=0;dropTarget=0;pointerEvents=0;fillColor=none;top=0;left=0;bottom=0;right=0;points=[[0,0.5],[1,0.5]];portConstraint=eastwest;fontColor=#000000;strokeColor=#000000;fontSize=5;" vertex="1" parent="9">
                    <mxGeometry y="37" width="616" height="39" as="geometry"/>
                </mxCell>
                <mxCell id="67" value="Sunday" style="shape=partialRectangle;html=1;whiteSpace=wrap;connectable=0;fillColor=none;top=0;left=0;bottom=0;right=0;overflow=hidden;pointerEvents=1;fontColor=#000000;strokeColor=#000000;fontSize=5;" vertex="1" parent="66">
                    <mxGeometry width="24" height="39" as="geometry">
                        <mxRectangle width="24" height="39" as="alternateBounds"/>
                    </mxGeometry>
                </mxCell>
                <mxCell id="68" style="shape=partialRectangle;html=1;whiteSpace=wrap;connectable=0;fillColor=none;top=0;left=0;bottom=0;right=0;overflow=hidden;pointerEvents=1;fontColor=#000000;strokeColor=#000000;fontSize=5;" vertex="1" parent="66">
                    <mxGeometry x="24" width="27" height="39" as="geometry">
                        <mxRectangle width="27" height="39" as="alternateBounds"/>
                    </mxGeometry>
                </mxCell>
                <mxCell id="69" style="shape=partialRectangle;html=1;whiteSpace=wrap;connectable=0;fillColor=none;top=0;left=0;bottom=0;right=0;overflow=hidden;pointerEvents=1;fontColor=#000000;strokeColor=#000000;fontSize=5;" vertex="1" parent="66">
                    <mxGeometry x="51" width="25" height="39" as="geometry">
                        <mxRectangle width="25" height="39" as="alternateBounds"/>
                    </mxGeometry>
                </mxCell>
                <mxCell id="70" style="shape=partialRectangle;html=1;whiteSpace=wrap;connectable=0;fillColor=none;top=0;left=0;bottom=0;right=0;overflow=hidden;pointerEvents=1;fontColor=#000000;strokeColor=#000000;fontSize=5;" vertex="1" parent="66">
                    <mxGeometry x="76" width="24" height="39" as="geometry">
                        <mxRectangle width="24" height="39" as="alternateBounds"/>
                    </mxGeometry>
                </mxCell>
                <mxCell id="71" style="shape=partialRectangle;html=1;whiteSpace=wrap;connectable=0;fillColor=none;top=0;left=0;bottom=0;right=0;overflow=hidden;pointerEvents=1;fontColor=#000000;strokeColor=#000000;fontSize=5;" vertex="1" parent="66">
                    <mxGeometry x="100" width="25" height="39" as="geometry">
                        <mxRectangle width="25" height="39" as="alternateBounds"/>
                    </mxGeometry>
                </mxCell>
                <mxCell id="72" style="shape=partialRectangle;html=1;whiteSpace=wrap;connectable=0;fillColor=none;top=0;left=0;bottom=0;right=0;overflow=hidden;pointerEvents=1;fontColor=#000000;strokeColor=#000000;fontSize=5;" vertex="1" parent="66">
                    <mxGeometry x="125" width="25" height="39" as="geometry">
                        <mxRectangle width="25" height="39" as="alternateBounds"/>
                    </mxGeometry>
                </mxCell>
                <mxCell id="90" style="shape=partialRectangle;html=1;whiteSpace=wrap;connectable=0;fillColor=none;top=0;left=0;bottom=0;right=0;overflow=hidden;pointerEvents=1;fontColor=#000000;strokeColor=#000000;fontSize=5;" vertex="1" parent="66">
                    <mxGeometry x="150" width="24" height="39" as="geometry">
                        <mxRectangle width="24" height="39" as="alternateBounds"/>
                    </mxGeometry>
                </mxCell>
                <mxCell id="82" style="shape=partialRectangle;html=1;whiteSpace=wrap;connectable=0;fillColor=none;top=0;left=0;bottom=0;right=0;overflow=hidden;pointerEvents=1;fontColor=#000000;strokeColor=#000000;fontSize=5;" vertex="1" parent="66">
                    <mxGeometry x="174" width="26" height="39" as="geometry">
                        <mxRectangle width="26" height="39" as="alternateBounds"/>
                    </mxGeometry>
                </mxCell>
                <mxCell id="74" style="shape=partialRectangle;html=1;whiteSpace=wrap;connectable=0;fillColor=none;top=0;left=0;bottom=0;right=0;overflow=hidden;pointerEvents=1;fontColor=#000000;strokeColor=#000000;fontSize=5;" vertex="1" parent="66">
                    <mxGeometry x="200" width="27" height="39" as="geometry">
                        <mxRectangle width="27" height="39" as="alternateBounds"/>
                    </mxGeometry>
                </mxCell>
                <mxCell id="138" style="shape=partialRectangle;html=1;whiteSpace=wrap;connectable=0;fillColor=none;top=0;left=0;bottom=0;right=0;overflow=hidden;pointerEvents=1;fontColor=#000000;strokeColor=#000000;fontSize=5;" vertex="1" parent="66">
                    <mxGeometry x="227" width="25" height="39" as="geometry">
                        <mxRectangle width="25" height="39" as="alternateBounds"/>
                    </mxGeometry>
                </mxCell>
                <mxCell id="130" style="shape=partialRectangle;html=1;whiteSpace=wrap;connectable=0;fillColor=none;top=0;left=0;bottom=0;right=0;overflow=hidden;pointerEvents=1;fontColor=#000000;strokeColor=#000000;fontSize=5;" vertex="1" parent="66">
                    <mxGeometry x="252" width="23" height="39" as="geometry">
                        <mxRectangle width="23" height="39" as="alternateBounds"/>
                    </mxGeometry>
                </mxCell>
                <mxCell id="122" style="shape=partialRectangle;html=1;whiteSpace=wrap;connectable=0;fillColor=none;top=0;left=0;bottom=0;right=0;overflow=hidden;pointerEvents=1;fontColor=#000000;strokeColor=#000000;fontSize=5;" vertex="1" parent="66">
                    <mxGeometry x="275" width="24" height="39" as="geometry">
                        <mxRectangle width="24" height="39" as="alternateBounds"/>
                    </mxGeometry>
                </mxCell>
                <mxCell id="114" style="shape=partialRectangle;html=1;whiteSpace=wrap;connectable=0;fillColor=none;top=0;left=0;bottom=0;right=0;overflow=hidden;pointerEvents=1;fontColor=#000000;strokeColor=#000000;fontSize=5;" vertex="1" parent="66">
                    <mxGeometry x="299" width="24" height="39" as="geometry">
                        <mxRectangle width="24" height="39" as="alternateBounds"/>
                    </mxGeometry>
                </mxCell>
                <mxCell id="106" style="shape=partialRectangle;html=1;whiteSpace=wrap;connectable=0;fillColor=none;top=0;left=0;bottom=0;right=0;overflow=hidden;pointerEvents=1;fontColor=#000000;strokeColor=#000000;fontSize=5;" vertex="1" parent="66">
                    <mxGeometry x="323" width="25" height="39" as="geometry">
                        <mxRectangle width="25" height="39" as="alternateBounds"/>
                    </mxGeometry>
                </mxCell>
                <mxCell id="98" style="shape=partialRectangle;html=1;whiteSpace=wrap;connectable=0;fillColor=none;top=0;left=0;bottom=0;right=0;overflow=hidden;pointerEvents=1;fontColor=#000000;strokeColor=#000000;fontSize=5;" vertex="1" parent="66">
                    <mxGeometry x="348" width="24" height="39" as="geometry">
                        <mxRectangle width="24" height="39" as="alternateBounds"/>
                    </mxGeometry>
                </mxCell>
                <mxCell id="207" style="shape=partialRectangle;html=1;whiteSpace=wrap;connectable=0;fillColor=none;top=0;left=0;bottom=0;right=0;overflow=hidden;pointerEvents=1;fontColor=#000000;strokeColor=#000000;fontSize=5;" vertex="1" parent="66">
                    <mxGeometry x="372" width="25" height="39" as="geometry">
                        <mxRectangle width="25" height="39" as="alternateBounds"/>
                    </mxGeometry>
                </mxCell>
                <mxCell id="178" style="shape=partialRectangle;html=1;whiteSpace=wrap;connectable=0;fillColor=none;top=0;left=0;bottom=0;right=0;overflow=hidden;pointerEvents=1;fontColor=#000000;strokeColor=#000000;fontSize=5;" vertex="1" parent="66">
                    <mxGeometry x="397" width="25" height="39" as="geometry">
                        <mxRectangle width="25" height="39" as="alternateBounds"/>
                    </mxGeometry>
                </mxCell>
                <mxCell id="170" style="shape=partialRectangle;html=1;whiteSpace=wrap;connectable=0;fillColor=none;top=0;left=0;bottom=0;right=0;overflow=hidden;pointerEvents=1;fontColor=#000000;strokeColor=#000000;fontSize=5;" vertex="1" parent="66">
                    <mxGeometry x="422" width="23" height="39" as="geometry">
                        <mxRectangle width="23" height="39" as="alternateBounds"/>
                    </mxGeometry>
                </mxCell>
                <mxCell id="162" style="shape=partialRectangle;html=1;whiteSpace=wrap;connectable=0;fillColor=none;top=0;left=0;bottom=0;right=0;overflow=hidden;pointerEvents=1;fontColor=#000000;strokeColor=#000000;fontSize=5;" vertex="1" parent="66">
                    <mxGeometry x="445" width="24" height="39" as="geometry">
                        <mxRectangle width="24" height="39" as="alternateBounds"/>
                    </mxGeometry>
                </mxCell>
                <mxCell id="154" style="shape=partialRectangle;html=1;whiteSpace=wrap;connectable=0;fillColor=none;top=0;left=0;bottom=0;right=0;overflow=hidden;pointerEvents=1;fontColor=#000000;strokeColor=#000000;fontSize=5;" vertex="1" parent="66">
                    <mxGeometry x="469" width="23" height="39" as="geometry">
                        <mxRectangle width="23" height="39" as="alternateBounds"/>
                    </mxGeometry>
                </mxCell>
                <mxCell id="231" style="shape=partialRectangle;html=1;whiteSpace=wrap;connectable=0;fillColor=none;top=0;left=0;bottom=0;right=0;overflow=hidden;pointerEvents=1;fontColor=#000000;strokeColor=#000000;fontSize=5;" vertex="1" parent="66">
                    <mxGeometry x="492" width="24" height="39" as="geometry">
                        <mxRectangle width="24" height="39" as="alternateBounds"/>
                    </mxGeometry>
                </mxCell>
                <mxCell id="239" style="shape=partialRectangle;html=1;whiteSpace=wrap;connectable=0;fillColor=none;top=0;left=0;bottom=0;right=0;overflow=hidden;pointerEvents=1;fontColor=#000000;strokeColor=#000000;fontSize=5;" vertex="1" parent="66">
                    <mxGeometry x="516" width="25" height="39" as="geometry">
                        <mxRectangle width="25" height="39" as="alternateBounds"/>
                    </mxGeometry>
                </mxCell>
                <mxCell id="247" style="shape=partialRectangle;html=1;whiteSpace=wrap;connectable=0;fillColor=none;top=0;left=0;bottom=0;right=0;overflow=hidden;pointerEvents=1;fontColor=#000000;strokeColor=#000000;fontSize=5;" vertex="1" parent="66">
                    <mxGeometry x="541" width="27" height="39" as="geometry">
                        <mxRectangle width="27" height="39" as="alternateBounds"/>
                    </mxGeometry>
                </mxCell>
                <mxCell id="146" style="shape=partialRectangle;html=1;whiteSpace=wrap;connectable=0;fillColor=none;top=0;left=0;bottom=0;right=0;overflow=hidden;pointerEvents=1;fontColor=#000000;strokeColor=#000000;fontSize=5;" vertex="1" parent="66">
                    <mxGeometry x="568" width="23" height="39" as="geometry">
                        <mxRectangle width="23" height="39" as="alternateBounds"/>
                    </mxGeometry>
                </mxCell>
                <mxCell id="223" style="shape=partialRectangle;html=1;whiteSpace=wrap;connectable=0;fillColor=none;top=0;left=0;bottom=0;right=0;overflow=hidden;pointerEvents=1;fontColor=#000000;strokeColor=#000000;fontSize=5;" vertex="1" parent="66">
                    <mxGeometry x="591" width="25" height="39" as="geometry">
                        <mxRectangle width="25" height="39" as="alternateBounds"/>
                    </mxGeometry>
                </mxCell>
                <mxCell id="59" style="shape=partialRectangle;html=1;whiteSpace=wrap;collapsible=0;dropTarget=0;pointerEvents=0;fillColor=none;top=0;left=0;bottom=0;right=0;points=[[0,0.5],[1,0.5]];portConstraint=eastwest;fontColor=#000000;strokeColor=#000000;fontSize=5;" vertex="1" parent="9">
                    <mxGeometry y="76" width="616" height="37" as="geometry"/>
                </mxCell>
                <mxCell id="60" value="Monday" style="shape=partialRectangle;html=1;whiteSpace=wrap;connectable=0;fillColor=none;top=0;left=0;bottom=0;right=0;overflow=hidden;pointerEvents=1;fontColor=#000000;strokeColor=#000000;fontSize=5;" vertex="1" parent="59">
                    <mxGeometry width="24" height="37" as="geometry">
                        <mxRectangle width="24" height="37" as="alternateBounds"/>
                    </mxGeometry>
                </mxCell>
                <mxCell id="61" style="shape=partialRectangle;html=1;whiteSpace=wrap;connectable=0;fillColor=none;top=0;left=0;bottom=0;right=0;overflow=hidden;pointerEvents=1;fontColor=#000000;strokeColor=#000000;fontSize=5;" vertex="1" parent="59">
                    <mxGeometry x="24" width="27" height="37" as="geometry">
                        <mxRectangle width="27" height="37" as="alternateBounds"/>
                    </mxGeometry>
                </mxCell>
                <mxCell id="62" style="shape=partialRectangle;html=1;whiteSpace=wrap;connectable=0;fillColor=none;top=0;left=0;bottom=0;right=0;overflow=hidden;pointerEvents=1;fontColor=#000000;strokeColor=#000000;fontSize=5;" vertex="1" parent="59">
                    <mxGeometry x="51" width="25" height="37" as="geometry">
                        <mxRectangle width="25" height="37" as="alternateBounds"/>
                    </mxGeometry>
                </mxCell>
                <mxCell id="63" style="shape=partialRectangle;html=1;whiteSpace=wrap;connectable=0;fillColor=none;top=0;left=0;bottom=0;right=0;overflow=hidden;pointerEvents=1;fontColor=#000000;strokeColor=#000000;fontSize=5;" vertex="1" parent="59">
                    <mxGeometry x="76" width="24" height="37" as="geometry">
                        <mxRectangle width="24" height="37" as="alternateBounds"/>
                    </mxGeometry>
                </mxCell>
                <mxCell id="64" style="shape=partialRectangle;html=1;whiteSpace=wrap;connectable=0;fillColor=none;top=0;left=0;bottom=0;right=0;overflow=hidden;pointerEvents=1;fontColor=#000000;strokeColor=#000000;fontSize=5;" vertex="1" parent="59">
                    <mxGeometry x="100" width="25" height="37" as="geometry">
                        <mxRectangle width="25" height="37" as="alternateBounds"/>
                    </mxGeometry>
                </mxCell>
                <mxCell id="65" style="shape=partialRectangle;html=1;whiteSpace=wrap;connectable=0;fillColor=none;top=0;left=0;bottom=0;right=0;overflow=hidden;pointerEvents=1;fontColor=#000000;strokeColor=#000000;fontSize=5;" vertex="1" parent="59">
                    <mxGeometry x="125" width="25" height="37" as="geometry">
                        <mxRectangle width="25" height="37" as="alternateBounds"/>
                    </mxGeometry>
                </mxCell>
                <mxCell id="91" style="shape=partialRectangle;html=1;whiteSpace=wrap;connectable=0;fillColor=none;top=0;left=0;bottom=0;right=0;overflow=hidden;pointerEvents=1;fontColor=#000000;strokeColor=#000000;fontSize=5;" vertex="1" parent="59">
                    <mxGeometry x="150" width="24" height="37" as="geometry">
                        <mxRectangle width="24" height="37" as="alternateBounds"/>
                    </mxGeometry>
                </mxCell>
                <mxCell id="83" style="shape=partialRectangle;html=1;whiteSpace=wrap;connectable=0;fillColor=none;top=0;left=0;bottom=0;right=0;overflow=hidden;pointerEvents=1;fontColor=#000000;strokeColor=#000000;fontSize=5;" vertex="1" parent="59">
                    <mxGeometry x="174" width="26" height="37" as="geometry">
                        <mxRectangle width="26" height="37" as="alternateBounds"/>
                    </mxGeometry>
                </mxCell>
                <mxCell id="75" style="shape=partialRectangle;html=1;whiteSpace=wrap;connectable=0;fillColor=none;top=0;left=0;bottom=0;right=0;overflow=hidden;pointerEvents=1;fontColor=#000000;strokeColor=#000000;fontSize=5;" vertex="1" parent="59">
                    <mxGeometry x="200" width="27" height="37" as="geometry">
                        <mxRectangle width="27" height="37" as="alternateBounds"/>
                    </mxGeometry>
                </mxCell>
                <mxCell id="139" style="shape=partialRectangle;html=1;whiteSpace=wrap;connectable=0;fillColor=none;top=0;left=0;bottom=0;right=0;overflow=hidden;pointerEvents=1;fontColor=#000000;strokeColor=#000000;fontSize=5;" vertex="1" parent="59">
                    <mxGeometry x="227" width="25" height="37" as="geometry">
                        <mxRectangle width="25" height="37" as="alternateBounds"/>
                    </mxGeometry>
                </mxCell>
                <mxCell id="131" style="shape=partialRectangle;html=1;whiteSpace=wrap;connectable=0;fillColor=none;top=0;left=0;bottom=0;right=0;overflow=hidden;pointerEvents=1;fontColor=#000000;strokeColor=#000000;fontSize=5;" vertex="1" parent="59">
                    <mxGeometry x="252" width="23" height="37" as="geometry">
                        <mxRectangle width="23" height="37" as="alternateBounds"/>
                    </mxGeometry>
                </mxCell>
                <mxCell id="123" style="shape=partialRectangle;html=1;whiteSpace=wrap;connectable=0;fillColor=none;top=0;left=0;bottom=0;right=0;overflow=hidden;pointerEvents=1;fontColor=#000000;strokeColor=#000000;fontSize=5;" vertex="1" parent="59">
                    <mxGeometry x="275" width="24" height="37" as="geometry">
                        <mxRectangle width="24" height="37" as="alternateBounds"/>
                    </mxGeometry>
                </mxCell>
                <mxCell id="115" style="shape=partialRectangle;html=1;whiteSpace=wrap;connectable=0;fillColor=none;top=0;left=0;bottom=0;right=0;overflow=hidden;pointerEvents=1;fontColor=#000000;strokeColor=#000000;fontSize=5;" vertex="1" parent="59">
                    <mxGeometry x="299" width="24" height="37" as="geometry">
                        <mxRectangle width="24" height="37" as="alternateBounds"/>
                    </mxGeometry>
                </mxCell>
                <mxCell id="107" style="shape=partialRectangle;html=1;whiteSpace=wrap;connectable=0;fillColor=none;top=0;left=0;bottom=0;right=0;overflow=hidden;pointerEvents=1;fontColor=#000000;strokeColor=#000000;fontSize=5;" vertex="1" parent="59">
                    <mxGeometry x="323" width="25" height="37" as="geometry">
                        <mxRectangle width="25" height="37" as="alternateBounds"/>
                    </mxGeometry>
                </mxCell>
                <mxCell id="99" style="shape=partialRectangle;html=1;whiteSpace=wrap;connectable=0;fillColor=none;top=0;left=0;bottom=0;right=0;overflow=hidden;pointerEvents=1;fontColor=#000000;strokeColor=#000000;fontSize=5;" vertex="1" parent="59">
                    <mxGeometry x="348" width="24" height="37" as="geometry">
                        <mxRectangle width="24" height="37" as="alternateBounds"/>
                    </mxGeometry>
                </mxCell>
                <mxCell id="208" style="shape=partialRectangle;html=1;whiteSpace=wrap;connectable=0;fillColor=none;top=0;left=0;bottom=0;right=0;overflow=hidden;pointerEvents=1;fontColor=#000000;strokeColor=#000000;fontSize=5;" vertex="1" parent="59">
                    <mxGeometry x="372" width="25" height="37" as="geometry">
                        <mxRectangle width="25" height="37" as="alternateBounds"/>
                    </mxGeometry>
                </mxCell>
                <mxCell id="179" style="shape=partialRectangle;html=1;whiteSpace=wrap;connectable=0;fillColor=none;top=0;left=0;bottom=0;right=0;overflow=hidden;pointerEvents=1;fontColor=#000000;strokeColor=#000000;fontSize=5;" vertex="1" parent="59">
                    <mxGeometry x="397" width="25" height="37" as="geometry">
                        <mxRectangle width="25" height="37" as="alternateBounds"/>
                    </mxGeometry>
                </mxCell>
                <mxCell id="171" style="shape=partialRectangle;html=1;whiteSpace=wrap;connectable=0;fillColor=none;top=0;left=0;bottom=0;right=0;overflow=hidden;pointerEvents=1;fontColor=#000000;strokeColor=#000000;fontSize=5;" vertex="1" parent="59">
                    <mxGeometry x="422" width="23" height="37" as="geometry">
                        <mxRectangle width="23" height="37" as="alternateBounds"/>
                    </mxGeometry>
                </mxCell>
                <mxCell id="163" style="shape=partialRectangle;html=1;whiteSpace=wrap;connectable=0;fillColor=none;top=0;left=0;bottom=0;right=0;overflow=hidden;pointerEvents=1;fontColor=#000000;strokeColor=#000000;fontSize=5;" vertex="1" parent="59">
                    <mxGeometry x="445" width="24" height="37" as="geometry">
                        <mxRectangle width="24" height="37" as="alternateBounds"/>
                    </mxGeometry>
                </mxCell>
                <mxCell id="155" style="shape=partialRectangle;html=1;whiteSpace=wrap;connectable=0;fillColor=none;top=0;left=0;bottom=0;right=0;overflow=hidden;pointerEvents=1;fontColor=#000000;strokeColor=#000000;fontSize=5;" vertex="1" parent="59">
                    <mxGeometry x="469" width="23" height="37" as="geometry">
                        <mxRectangle width="23" height="37" as="alternateBounds"/>
                    </mxGeometry>
                </mxCell>
                <mxCell id="232" style="shape=partialRectangle;html=1;whiteSpace=wrap;connectable=0;fillColor=none;top=0;left=0;bottom=0;right=0;overflow=hidden;pointerEvents=1;fontColor=#000000;strokeColor=#000000;fontSize=5;" vertex="1" parent="59">
                    <mxGeometry x="492" width="24" height="37" as="geometry">
                        <mxRectangle width="24" height="37" as="alternateBounds"/>
                    </mxGeometry>
                </mxCell>
                <mxCell id="240" style="shape=partialRectangle;html=1;whiteSpace=wrap;connectable=0;fillColor=none;top=0;left=0;bottom=0;right=0;overflow=hidden;pointerEvents=1;fontColor=#000000;strokeColor=#000000;fontSize=5;" vertex="1" parent="59">
                    <mxGeometry x="516" width="25" height="37" as="geometry">
                        <mxRectangle width="25" height="37" as="alternateBounds"/>
                    </mxGeometry>
                </mxCell>
                <mxCell id="248" style="shape=partialRectangle;html=1;whiteSpace=wrap;connectable=0;fillColor=none;top=0;left=0;bottom=0;right=0;overflow=hidden;pointerEvents=1;fontColor=#000000;strokeColor=#000000;fontSize=5;" vertex="1" parent="59">
                    <mxGeometry x="541" width="27" height="37" as="geometry">
                        <mxRectangle width="27" height="37" as="alternateBounds"/>
                    </mxGeometry>
                </mxCell>
                <mxCell id="147" style="shape=partialRectangle;html=1;whiteSpace=wrap;connectable=0;fillColor=none;top=0;left=0;bottom=0;right=0;overflow=hidden;pointerEvents=1;fontColor=#000000;strokeColor=#000000;fontSize=5;" vertex="1" parent="59">
                    <mxGeometry x="568" width="23" height="37" as="geometry">
                        <mxRectangle width="23" height="37" as="alternateBounds"/>
                    </mxGeometry>
                </mxCell>
                <mxCell id="224" style="shape=partialRectangle;html=1;whiteSpace=wrap;connectable=0;fillColor=none;top=0;left=0;bottom=0;right=0;overflow=hidden;pointerEvents=1;fontColor=#000000;strokeColor=#000000;fontSize=5;" vertex="1" parent="59">
                    <mxGeometry x="591" width="25" height="37" as="geometry">
                        <mxRectangle width="25" height="37" as="alternateBounds"/>
                    </mxGeometry>
                </mxCell>
                <mxCell id="52" style="shape=partialRectangle;html=1;whiteSpace=wrap;collapsible=0;dropTarget=0;pointerEvents=0;fillColor=none;top=0;left=0;bottom=0;right=0;points=[[0,0.5],[1,0.5]];portConstraint=eastwest;fontColor=#000000;strokeColor=#000000;fontSize=5;" vertex="1" parent="9">
                    <mxGeometry y="113" width="616" height="37" as="geometry"/>
                </mxCell>
                <mxCell id="53" value="Tuesday" style="shape=partialRectangle;html=1;whiteSpace=wrap;connectable=0;fillColor=none;top=0;left=0;bottom=0;right=0;overflow=hidden;pointerEvents=1;fontColor=#000000;strokeColor=#000000;fontSize=5;" vertex="1" parent="52">
                    <mxGeometry width="24" height="37" as="geometry">
                        <mxRectangle width="24" height="37" as="alternateBounds"/>
                    </mxGeometry>
                </mxCell>
                <mxCell id="54" style="shape=partialRectangle;html=1;whiteSpace=wrap;connectable=0;fillColor=none;top=0;left=0;bottom=0;right=0;overflow=hidden;pointerEvents=1;fontColor=#000000;strokeColor=#000000;fontSize=5;" vertex="1" parent="52">
                    <mxGeometry x="24" width="27" height="37" as="geometry">
                        <mxRectangle width="27" height="37" as="alternateBounds"/>
                    </mxGeometry>
                </mxCell>
                <mxCell id="55" style="shape=partialRectangle;html=1;whiteSpace=wrap;connectable=0;fillColor=none;top=0;left=0;bottom=0;right=0;overflow=hidden;pointerEvents=1;fontColor=#000000;strokeColor=#000000;fontSize=5;" vertex="1" parent="52">
                    <mxGeometry x="51" width="25" height="37" as="geometry">
                        <mxRectangle width="25" height="37" as="alternateBounds"/>
                    </mxGeometry>
                </mxCell>
                <mxCell id="56" style="shape=partialRectangle;html=1;whiteSpace=wrap;connectable=0;fillColor=none;top=0;left=0;bottom=0;right=0;overflow=hidden;pointerEvents=1;fontColor=#000000;strokeColor=#000000;fontSize=5;" vertex="1" parent="52">
                    <mxGeometry x="76" width="24" height="37" as="geometry">
                        <mxRectangle width="24" height="37" as="alternateBounds"/>
                    </mxGeometry>
                </mxCell>
                <mxCell id="57" style="shape=partialRectangle;html=1;whiteSpace=wrap;connectable=0;fillColor=none;top=0;left=0;bottom=0;right=0;overflow=hidden;pointerEvents=1;fontColor=#000000;strokeColor=#000000;fontSize=5;" vertex="1" parent="52">
                    <mxGeometry x="100" width="25" height="37" as="geometry">
                        <mxRectangle width="25" height="37" as="alternateBounds"/>
                    </mxGeometry>
                </mxCell>
                <mxCell id="58" style="shape=partialRectangle;html=1;whiteSpace=wrap;connectable=0;fillColor=none;top=0;left=0;bottom=0;right=0;overflow=hidden;pointerEvents=1;fontColor=#000000;strokeColor=#000000;fontSize=5;" vertex="1" parent="52">
                    <mxGeometry x="125" width="25" height="37" as="geometry">
                        <mxRectangle width="25" height="37" as="alternateBounds"/>
                    </mxGeometry>
                </mxCell>
                <mxCell id="92" style="shape=partialRectangle;html=1;whiteSpace=wrap;connectable=0;fillColor=none;top=0;left=0;bottom=0;right=0;overflow=hidden;pointerEvents=1;fontColor=#000000;strokeColor=#000000;fontSize=5;" vertex="1" parent="52">
                    <mxGeometry x="150" width="24" height="37" as="geometry">
                        <mxRectangle width="24" height="37" as="alternateBounds"/>
                    </mxGeometry>
                </mxCell>
                <mxCell id="84" style="shape=partialRectangle;html=1;whiteSpace=wrap;connectable=0;fillColor=none;top=0;left=0;bottom=0;right=0;overflow=hidden;pointerEvents=1;fontColor=#000000;strokeColor=#000000;fontSize=5;" vertex="1" parent="52">
                    <mxGeometry x="174" width="26" height="37" as="geometry">
                        <mxRectangle width="26" height="37" as="alternateBounds"/>
                    </mxGeometry>
                </mxCell>
                <mxCell id="76" style="shape=partialRectangle;html=1;whiteSpace=wrap;connectable=0;fillColor=none;top=0;left=0;bottom=0;right=0;overflow=hidden;pointerEvents=1;fontColor=#000000;strokeColor=#000000;fontSize=5;" vertex="1" parent="52">
                    <mxGeometry x="200" width="27" height="37" as="geometry">
                        <mxRectangle width="27" height="37" as="alternateBounds"/>
                    </mxGeometry>
                </mxCell>
                <mxCell id="140" style="shape=partialRectangle;html=1;whiteSpace=wrap;connectable=0;fillColor=none;top=0;left=0;bottom=0;right=0;overflow=hidden;pointerEvents=1;fontColor=#000000;strokeColor=#000000;fontSize=5;" vertex="1" parent="52">
                    <mxGeometry x="227" width="25" height="37" as="geometry">
                        <mxRectangle width="25" height="37" as="alternateBounds"/>
                    </mxGeometry>
                </mxCell>
                <mxCell id="132" style="shape=partialRectangle;html=1;whiteSpace=wrap;connectable=0;fillColor=none;top=0;left=0;bottom=0;right=0;overflow=hidden;pointerEvents=1;fontColor=#000000;strokeColor=#000000;fontSize=5;" vertex="1" parent="52">
                    <mxGeometry x="252" width="23" height="37" as="geometry">
                        <mxRectangle width="23" height="37" as="alternateBounds"/>
                    </mxGeometry>
                </mxCell>
                <mxCell id="124" style="shape=partialRectangle;html=1;whiteSpace=wrap;connectable=0;fillColor=none;top=0;left=0;bottom=0;right=0;overflow=hidden;pointerEvents=1;fontColor=#000000;strokeColor=#000000;fontSize=5;" vertex="1" parent="52">
                    <mxGeometry x="275" width="24" height="37" as="geometry">
                        <mxRectangle width="24" height="37" as="alternateBounds"/>
                    </mxGeometry>
                </mxCell>
                <mxCell id="116" style="shape=partialRectangle;html=1;whiteSpace=wrap;connectable=0;fillColor=none;top=0;left=0;bottom=0;right=0;overflow=hidden;pointerEvents=1;fontColor=#000000;strokeColor=#000000;fontSize=5;" vertex="1" parent="52">
                    <mxGeometry x="299" width="24" height="37" as="geometry">
                        <mxRectangle width="24" height="37" as="alternateBounds"/>
                    </mxGeometry>
                </mxCell>
                <mxCell id="108" style="shape=partialRectangle;html=1;whiteSpace=wrap;connectable=0;fillColor=none;top=0;left=0;bottom=0;right=0;overflow=hidden;pointerEvents=1;fontColor=#000000;strokeColor=#000000;fontSize=5;" vertex="1" parent="52">
                    <mxGeometry x="323" width="25" height="37" as="geometry">
                        <mxRectangle width="25" height="37" as="alternateBounds"/>
                    </mxGeometry>
                </mxCell>
                <mxCell id="100" style="shape=partialRectangle;html=1;whiteSpace=wrap;connectable=0;fillColor=none;top=0;left=0;bottom=0;right=0;overflow=hidden;pointerEvents=1;fontColor=#000000;strokeColor=#000000;fontSize=5;" vertex="1" parent="52">
                    <mxGeometry x="348" width="24" height="37" as="geometry">
                        <mxRectangle width="24" height="37" as="alternateBounds"/>
                    </mxGeometry>
                </mxCell>
                <mxCell id="209" style="shape=partialRectangle;html=1;whiteSpace=wrap;connectable=0;fillColor=none;top=0;left=0;bottom=0;right=0;overflow=hidden;pointerEvents=1;fontColor=#000000;strokeColor=#000000;fontSize=5;" vertex="1" parent="52">
                    <mxGeometry x="372" width="25" height="37" as="geometry">
                        <mxRectangle width="25" height="37" as="alternateBounds"/>
                    </mxGeometry>
                </mxCell>
                <mxCell id="180" style="shape=partialRectangle;html=1;whiteSpace=wrap;connectable=0;fillColor=none;top=0;left=0;bottom=0;right=0;overflow=hidden;pointerEvents=1;fontColor=#000000;strokeColor=#000000;fontSize=5;" vertex="1" parent="52">
                    <mxGeometry x="397" width="25" height="37" as="geometry">
                        <mxRectangle width="25" height="37" as="alternateBounds"/>
                    </mxGeometry>
                </mxCell>
                <mxCell id="172" style="shape=partialRectangle;html=1;whiteSpace=wrap;connectable=0;fillColor=none;top=0;left=0;bottom=0;right=0;overflow=hidden;pointerEvents=1;fontColor=#000000;strokeColor=#000000;fontSize=5;" vertex="1" parent="52">
                    <mxGeometry x="422" width="23" height="37" as="geometry">
                        <mxRectangle width="23" height="37" as="alternateBounds"/>
                    </mxGeometry>
                </mxCell>
                <mxCell id="164" style="shape=partialRectangle;html=1;whiteSpace=wrap;connectable=0;fillColor=none;top=0;left=0;bottom=0;right=0;overflow=hidden;pointerEvents=1;fontColor=#000000;strokeColor=#000000;fontSize=5;" vertex="1" parent="52">
                    <mxGeometry x="445" width="24" height="37" as="geometry">
                        <mxRectangle width="24" height="37" as="alternateBounds"/>
                    </mxGeometry>
                </mxCell>
                <mxCell id="156" style="shape=partialRectangle;html=1;whiteSpace=wrap;connectable=0;fillColor=none;top=0;left=0;bottom=0;right=0;overflow=hidden;pointerEvents=1;fontColor=#000000;strokeColor=#000000;fontSize=5;" vertex="1" parent="52">
                    <mxGeometry x="469" width="23" height="37" as="geometry">
                        <mxRectangle width="23" height="37" as="alternateBounds"/>
                    </mxGeometry>
                </mxCell>
                <mxCell id="233" style="shape=partialRectangle;html=1;whiteSpace=wrap;connectable=0;fillColor=none;top=0;left=0;bottom=0;right=0;overflow=hidden;pointerEvents=1;fontColor=#000000;strokeColor=#000000;fontSize=5;" vertex="1" parent="52">
                    <mxGeometry x="492" width="24" height="37" as="geometry">
                        <mxRectangle width="24" height="37" as="alternateBounds"/>
                    </mxGeometry>
                </mxCell>
                <mxCell id="241" style="shape=partialRectangle;html=1;whiteSpace=wrap;connectable=0;fillColor=none;top=0;left=0;bottom=0;right=0;overflow=hidden;pointerEvents=1;fontColor=#000000;strokeColor=#000000;fontSize=5;" vertex="1" parent="52">
                    <mxGeometry x="516" width="25" height="37" as="geometry">
                        <mxRectangle width="25" height="37" as="alternateBounds"/>
                    </mxGeometry>
                </mxCell>
                <mxCell id="249" style="shape=partialRectangle;html=1;whiteSpace=wrap;connectable=0;fillColor=none;top=0;left=0;bottom=0;right=0;overflow=hidden;pointerEvents=1;fontColor=#000000;strokeColor=#000000;fontSize=5;" vertex="1" parent="52">
                    <mxGeometry x="541" width="27" height="37" as="geometry">
                        <mxRectangle width="27" height="37" as="alternateBounds"/>
                    </mxGeometry>
                </mxCell>
                <mxCell id="148" style="shape=partialRectangle;html=1;whiteSpace=wrap;connectable=0;fillColor=none;top=0;left=0;bottom=0;right=0;overflow=hidden;pointerEvents=1;fontColor=#000000;strokeColor=#000000;fontSize=5;" vertex="1" parent="52">
                    <mxGeometry x="568" width="23" height="37" as="geometry">
                        <mxRectangle width="23" height="37" as="alternateBounds"/>
                    </mxGeometry>
                </mxCell>
                <mxCell id="225" style="shape=partialRectangle;html=1;whiteSpace=wrap;connectable=0;fillColor=none;top=0;left=0;bottom=0;right=0;overflow=hidden;pointerEvents=1;fontColor=#000000;strokeColor=#000000;fontSize=5;" vertex="1" parent="52">
                    <mxGeometry x="591" width="25" height="37" as="geometry">
                        <mxRectangle width="25" height="37" as="alternateBounds"/>
                    </mxGeometry>
                </mxCell>
                <mxCell id="38" style="shape=partialRectangle;html=1;whiteSpace=wrap;collapsible=0;dropTarget=0;pointerEvents=0;fillColor=none;top=0;left=0;bottom=0;right=0;points=[[0,0.5],[1,0.5]];portConstraint=eastwest;fontColor=#000000;strokeColor=#000000;fontSize=5;" vertex="1" parent="9">
                    <mxGeometry y="150" width="616" height="37" as="geometry"/>
                </mxCell>
                <mxCell id="39" value="Wednesday" style="shape=partialRectangle;html=1;whiteSpace=wrap;connectable=0;fillColor=none;top=0;left=0;bottom=0;right=0;overflow=hidden;pointerEvents=1;fontColor=#000000;strokeColor=#000000;fontSize=5;" vertex="1" parent="38">
                    <mxGeometry width="24" height="37" as="geometry">
                        <mxRectangle width="24" height="37" as="alternateBounds"/>
                    </mxGeometry>
                </mxCell>
                <mxCell id="40" style="shape=partialRectangle;html=1;whiteSpace=wrap;connectable=0;fillColor=none;top=0;left=0;bottom=0;right=0;overflow=hidden;pointerEvents=1;fontColor=#000000;strokeColor=#000000;fontSize=5;" vertex="1" parent="38">
                    <mxGeometry x="24" width="27" height="37" as="geometry">
                        <mxRectangle width="27" height="37" as="alternateBounds"/>
                    </mxGeometry>
                </mxCell>
                <mxCell id="41" style="shape=partialRectangle;html=1;whiteSpace=wrap;connectable=0;fillColor=none;top=0;left=0;bottom=0;right=0;overflow=hidden;pointerEvents=1;fontColor=#000000;strokeColor=#000000;fontSize=5;" vertex="1" parent="38">
                    <mxGeometry x="51" width="25" height="37" as="geometry">
                        <mxRectangle width="25" height="37" as="alternateBounds"/>
                    </mxGeometry>
                </mxCell>
                <mxCell id="42" style="shape=partialRectangle;html=1;whiteSpace=wrap;connectable=0;fillColor=none;top=0;left=0;bottom=0;right=0;overflow=hidden;pointerEvents=1;fontColor=#000000;strokeColor=#000000;fontSize=5;" vertex="1" parent="38">
                    <mxGeometry x="76" width="24" height="37" as="geometry">
                        <mxRectangle width="24" height="37" as="alternateBounds"/>
                    </mxGeometry>
                </mxCell>
                <mxCell id="43" style="shape=partialRectangle;html=1;whiteSpace=wrap;connectable=0;fillColor=none;top=0;left=0;bottom=0;right=0;overflow=hidden;pointerEvents=1;fontColor=#000000;strokeColor=#000000;fontSize=5;" vertex="1" parent="38">
                    <mxGeometry x="100" width="25" height="37" as="geometry">
                        <mxRectangle width="25" height="37" as="alternateBounds"/>
                    </mxGeometry>
                </mxCell>
                <mxCell id="44" style="shape=partialRectangle;html=1;whiteSpace=wrap;connectable=0;fillColor=none;top=0;left=0;bottom=0;right=0;overflow=hidden;pointerEvents=1;fontColor=#000000;strokeColor=#000000;fontSize=5;" vertex="1" parent="38">
                    <mxGeometry x="125" width="25" height="37" as="geometry">
                        <mxRectangle width="25" height="37" as="alternateBounds"/>
                    </mxGeometry>
                </mxCell>
                <mxCell id="93" style="shape=partialRectangle;html=1;whiteSpace=wrap;connectable=0;fillColor=none;top=0;left=0;bottom=0;right=0;overflow=hidden;pointerEvents=1;fontColor=#000000;strokeColor=#000000;fontSize=5;" vertex="1" parent="38">
                    <mxGeometry x="150" width="24" height="37" as="geometry">
                        <mxRectangle width="24" height="37" as="alternateBounds"/>
                    </mxGeometry>
                </mxCell>
                <mxCell id="85" style="shape=partialRectangle;html=1;whiteSpace=wrap;connectable=0;fillColor=none;top=0;left=0;bottom=0;right=0;overflow=hidden;pointerEvents=1;fontColor=#000000;strokeColor=#000000;fontSize=5;" vertex="1" parent="38">
                    <mxGeometry x="174" width="26" height="37" as="geometry">
                        <mxRectangle width="26" height="37" as="alternateBounds"/>
                    </mxGeometry>
                </mxCell>
                <mxCell id="77" style="shape=partialRectangle;html=1;whiteSpace=wrap;connectable=0;fillColor=none;top=0;left=0;bottom=0;right=0;overflow=hidden;pointerEvents=1;fontColor=#000000;strokeColor=#000000;fontSize=5;" vertex="1" parent="38">
                    <mxGeometry x="200" width="27" height="37" as="geometry">
                        <mxRectangle width="27" height="37" as="alternateBounds"/>
                    </mxGeometry>
                </mxCell>
                <mxCell id="141" style="shape=partialRectangle;html=1;whiteSpace=wrap;connectable=0;fillColor=none;top=0;left=0;bottom=0;right=0;overflow=hidden;pointerEvents=1;fontColor=#000000;strokeColor=#000000;fontSize=5;" vertex="1" parent="38">
                    <mxGeometry x="227" width="25" height="37" as="geometry">
                        <mxRectangle width="25" height="37" as="alternateBounds"/>
                    </mxGeometry>
                </mxCell>
                <mxCell id="133" style="shape=partialRectangle;html=1;whiteSpace=wrap;connectable=0;fillColor=none;top=0;left=0;bottom=0;right=0;overflow=hidden;pointerEvents=1;fontColor=#000000;strokeColor=#000000;fontSize=5;" vertex="1" parent="38">
                    <mxGeometry x="252" width="23" height="37" as="geometry">
                        <mxRectangle width="23" height="37" as="alternateBounds"/>
                    </mxGeometry>
                </mxCell>
                <mxCell id="125" style="shape=partialRectangle;html=1;whiteSpace=wrap;connectable=0;fillColor=none;top=0;left=0;bottom=0;right=0;overflow=hidden;pointerEvents=1;fontColor=#000000;strokeColor=#000000;fontSize=5;" vertex="1" parent="38">
                    <mxGeometry x="275" width="24" height="37" as="geometry">
                        <mxRectangle width="24" height="37" as="alternateBounds"/>
                    </mxGeometry>
                </mxCell>
                <mxCell id="117" style="shape=partialRectangle;html=1;whiteSpace=wrap;connectable=0;fillColor=none;top=0;left=0;bottom=0;right=0;overflow=hidden;pointerEvents=1;fontColor=#000000;strokeColor=#000000;fontSize=5;" vertex="1" parent="38">
                    <mxGeometry x="299" width="24" height="37" as="geometry">
                        <mxRectangle width="24" height="37" as="alternateBounds"/>
                    </mxGeometry>
                </mxCell>
                <mxCell id="109" style="shape=partialRectangle;html=1;whiteSpace=wrap;connectable=0;fillColor=none;top=0;left=0;bottom=0;right=0;overflow=hidden;pointerEvents=1;fontColor=#000000;strokeColor=#000000;fontSize=5;" vertex="1" parent="38">
                    <mxGeometry x="323" width="25" height="37" as="geometry">
                        <mxRectangle width="25" height="37" as="alternateBounds"/>
                    </mxGeometry>
                </mxCell>
                <mxCell id="101" style="shape=partialRectangle;html=1;whiteSpace=wrap;connectable=0;fillColor=none;top=0;left=0;bottom=0;right=0;overflow=hidden;pointerEvents=1;fontColor=#000000;strokeColor=#000000;fontSize=5;" vertex="1" parent="38">
                    <mxGeometry x="348" width="24" height="37" as="geometry">
                        <mxRectangle width="24" height="37" as="alternateBounds"/>
                    </mxGeometry>
                </mxCell>
                <mxCell id="210" style="shape=partialRectangle;html=1;whiteSpace=wrap;connectable=0;fillColor=none;top=0;left=0;bottom=0;right=0;overflow=hidden;pointerEvents=1;fontColor=#000000;strokeColor=#000000;fontSize=5;" vertex="1" parent="38">
                    <mxGeometry x="372" width="25" height="37" as="geometry">
                        <mxRectangle width="25" height="37" as="alternateBounds"/>
                    </mxGeometry>
                </mxCell>
                <mxCell id="181" style="shape=partialRectangle;html=1;whiteSpace=wrap;connectable=0;fillColor=none;top=0;left=0;bottom=0;right=0;overflow=hidden;pointerEvents=1;fontColor=#000000;strokeColor=#000000;fontSize=5;" vertex="1" parent="38">
                    <mxGeometry x="397" width="25" height="37" as="geometry">
                        <mxRectangle width="25" height="37" as="alternateBounds"/>
                    </mxGeometry>
                </mxCell>
                <mxCell id="173" style="shape=partialRectangle;html=1;whiteSpace=wrap;connectable=0;fillColor=none;top=0;left=0;bottom=0;right=0;overflow=hidden;pointerEvents=1;fontColor=#000000;strokeColor=#000000;fontSize=5;" vertex="1" parent="38">
                    <mxGeometry x="422" width="23" height="37" as="geometry">
                        <mxRectangle width="23" height="37" as="alternateBounds"/>
                    </mxGeometry>
                </mxCell>
                <mxCell id="165" style="shape=partialRectangle;html=1;whiteSpace=wrap;connectable=0;fillColor=none;top=0;left=0;bottom=0;right=0;overflow=hidden;pointerEvents=1;fontColor=#000000;strokeColor=#000000;fontSize=5;" vertex="1" parent="38">
                    <mxGeometry x="445" width="24" height="37" as="geometry">
                        <mxRectangle width="24" height="37" as="alternateBounds"/>
                    </mxGeometry>
                </mxCell>
                <mxCell id="157" style="shape=partialRectangle;html=1;whiteSpace=wrap;connectable=0;fillColor=none;top=0;left=0;bottom=0;right=0;overflow=hidden;pointerEvents=1;fontColor=#000000;strokeColor=#000000;fontSize=5;" vertex="1" parent="38">
                    <mxGeometry x="469" width="23" height="37" as="geometry">
                        <mxRectangle width="23" height="37" as="alternateBounds"/>
                    </mxGeometry>
                </mxCell>
                <mxCell id="234" style="shape=partialRectangle;html=1;whiteSpace=wrap;connectable=0;fillColor=none;top=0;left=0;bottom=0;right=0;overflow=hidden;pointerEvents=1;fontColor=#000000;strokeColor=#000000;fontSize=5;" vertex="1" parent="38">
                    <mxGeometry x="492" width="24" height="37" as="geometry">
                        <mxRectangle width="24" height="37" as="alternateBounds"/>
                    </mxGeometry>
                </mxCell>
                <mxCell id="242" style="shape=partialRectangle;html=1;whiteSpace=wrap;connectable=0;fillColor=none;top=0;left=0;bottom=0;right=0;overflow=hidden;pointerEvents=1;fontColor=#000000;strokeColor=#000000;fontSize=5;" vertex="1" parent="38">
                    <mxGeometry x="516" width="25" height="37" as="geometry">
                        <mxRectangle width="25" height="37" as="alternateBounds"/>
                    </mxGeometry>
                </mxCell>
                <mxCell id="250" style="shape=partialRectangle;html=1;whiteSpace=wrap;connectable=0;fillColor=none;top=0;left=0;bottom=0;right=0;overflow=hidden;pointerEvents=1;fontColor=#000000;strokeColor=#000000;fontSize=5;" vertex="1" parent="38">
                    <mxGeometry x="541" width="27" height="37" as="geometry">
                        <mxRectangle width="27" height="37" as="alternateBounds"/>
                    </mxGeometry>
                </mxCell>
                <mxCell id="149" style="shape=partialRectangle;html=1;whiteSpace=wrap;connectable=0;fillColor=none;top=0;left=0;bottom=0;right=0;overflow=hidden;pointerEvents=1;fontColor=#000000;strokeColor=#000000;fontSize=5;" vertex="1" parent="38">
                    <mxGeometry x="568" width="23" height="37" as="geometry">
                        <mxRectangle width="23" height="37" as="alternateBounds"/>
                    </mxGeometry>
                </mxCell>
                <mxCell id="226" style="shape=partialRectangle;html=1;whiteSpace=wrap;connectable=0;fillColor=none;top=0;left=0;bottom=0;right=0;overflow=hidden;pointerEvents=1;fontColor=#000000;strokeColor=#000000;fontSize=5;" vertex="1" parent="38">
                    <mxGeometry x="591" width="25" height="37" as="geometry">
                        <mxRectangle width="25" height="37" as="alternateBounds"/>
                    </mxGeometry>
                </mxCell>
                <mxCell id="31" style="shape=partialRectangle;html=1;whiteSpace=wrap;collapsible=0;dropTarget=0;pointerEvents=0;fillColor=none;top=0;left=0;bottom=0;right=0;points=[[0,0.5],[1,0.5]];portConstraint=eastwest;fontColor=#000000;strokeColor=#000000;fontSize=5;" vertex="1" parent="9">
                    <mxGeometry y="187" width="616" height="39" as="geometry"/>
                </mxCell>
                <mxCell id="32" value="Thursday" style="shape=partialRectangle;html=1;whiteSpace=wrap;connectable=0;fillColor=none;top=0;left=0;bottom=0;right=0;overflow=hidden;pointerEvents=1;fontColor=#000000;strokeColor=#000000;fontSize=5;" vertex="1" parent="31">
                    <mxGeometry width="24" height="39" as="geometry">
                        <mxRectangle width="24" height="39" as="alternateBounds"/>
                    </mxGeometry>
                </mxCell>
                <mxCell id="33" style="shape=partialRectangle;html=1;whiteSpace=wrap;connectable=0;fillColor=none;top=0;left=0;bottom=0;right=0;overflow=hidden;pointerEvents=1;fontColor=#000000;strokeColor=#000000;fontSize=5;" vertex="1" parent="31">
                    <mxGeometry x="24" width="27" height="39" as="geometry">
                        <mxRectangle width="27" height="39" as="alternateBounds"/>
                    </mxGeometry>
                </mxCell>
                <mxCell id="34" style="shape=partialRectangle;html=1;whiteSpace=wrap;connectable=0;fillColor=none;top=0;left=0;bottom=0;right=0;overflow=hidden;pointerEvents=1;fontColor=#000000;strokeColor=#000000;fontSize=5;" vertex="1" parent="31">
                    <mxGeometry x="51" width="25" height="39" as="geometry">
                        <mxRectangle width="25" height="39" as="alternateBounds"/>
                    </mxGeometry>
                </mxCell>
                <mxCell id="35" style="shape=partialRectangle;html=1;whiteSpace=wrap;connectable=0;fillColor=none;top=0;left=0;bottom=0;right=0;overflow=hidden;pointerEvents=1;fontColor=#000000;strokeColor=#000000;fontSize=5;" vertex="1" parent="31">
                    <mxGeometry x="76" width="24" height="39" as="geometry">
                        <mxRectangle width="24" height="39" as="alternateBounds"/>
                    </mxGeometry>
                </mxCell>
                <mxCell id="36" style="shape=partialRectangle;html=1;whiteSpace=wrap;connectable=0;fillColor=none;top=0;left=0;bottom=0;right=0;overflow=hidden;pointerEvents=1;fontColor=#000000;strokeColor=#000000;fontSize=5;" vertex="1" parent="31">
                    <mxGeometry x="100" width="25" height="39" as="geometry">
                        <mxRectangle width="25" height="39" as="alternateBounds"/>
                    </mxGeometry>
                </mxCell>
                <mxCell id="37" style="shape=partialRectangle;html=1;whiteSpace=wrap;connectable=0;fillColor=none;top=0;left=0;bottom=0;right=0;overflow=hidden;pointerEvents=1;fontColor=#000000;strokeColor=#000000;fontSize=5;" vertex="1" parent="31">
                    <mxGeometry x="125" width="25" height="39" as="geometry">
                        <mxRectangle width="25" height="39" as="alternateBounds"/>
                    </mxGeometry>
                </mxCell>
                <mxCell id="94" style="shape=partialRectangle;html=1;whiteSpace=wrap;connectable=0;fillColor=none;top=0;left=0;bottom=0;right=0;overflow=hidden;pointerEvents=1;fontColor=#000000;strokeColor=#000000;fontSize=5;" vertex="1" parent="31">
                    <mxGeometry x="150" width="24" height="39" as="geometry">
                        <mxRectangle width="24" height="39" as="alternateBounds"/>
                    </mxGeometry>
                </mxCell>
                <mxCell id="86" style="shape=partialRectangle;html=1;whiteSpace=wrap;connectable=0;fillColor=none;top=0;left=0;bottom=0;right=0;overflow=hidden;pointerEvents=1;fontColor=#000000;strokeColor=#000000;fontSize=5;" vertex="1" parent="31">
                    <mxGeometry x="174" width="26" height="39" as="geometry">
                        <mxRectangle width="26" height="39" as="alternateBounds"/>
                    </mxGeometry>
                </mxCell>
                <mxCell id="78" style="shape=partialRectangle;html=1;whiteSpace=wrap;connectable=0;fillColor=none;top=0;left=0;bottom=0;right=0;overflow=hidden;pointerEvents=1;fontColor=#000000;strokeColor=#000000;fontSize=5;" vertex="1" parent="31">
                    <mxGeometry x="200" width="27" height="39" as="geometry">
                        <mxRectangle width="27" height="39" as="alternateBounds"/>
                    </mxGeometry>
                </mxCell>
                <mxCell id="142" style="shape=partialRectangle;html=1;whiteSpace=wrap;connectable=0;fillColor=none;top=0;left=0;bottom=0;right=0;overflow=hidden;pointerEvents=1;fontColor=#000000;strokeColor=#000000;fontSize=5;" vertex="1" parent="31">
                    <mxGeometry x="227" width="25" height="39" as="geometry">
                        <mxRectangle width="25" height="39" as="alternateBounds"/>
                    </mxGeometry>
                </mxCell>
                <mxCell id="134" style="shape=partialRectangle;html=1;whiteSpace=wrap;connectable=0;fillColor=none;top=0;left=0;bottom=0;right=0;overflow=hidden;pointerEvents=1;fontColor=#000000;strokeColor=#000000;fontSize=5;" vertex="1" parent="31">
                    <mxGeometry x="252" width="23" height="39" as="geometry">
                        <mxRectangle width="23" height="39" as="alternateBounds"/>
                    </mxGeometry>
                </mxCell>
                <mxCell id="126" style="shape=partialRectangle;html=1;whiteSpace=wrap;connectable=0;fillColor=none;top=0;left=0;bottom=0;right=0;overflow=hidden;pointerEvents=1;fontColor=#000000;strokeColor=#000000;fontSize=5;" vertex="1" parent="31">
                    <mxGeometry x="275" width="24" height="39" as="geometry">
                        <mxRectangle width="24" height="39" as="alternateBounds"/>
                    </mxGeometry>
                </mxCell>
                <mxCell id="118" style="shape=partialRectangle;html=1;whiteSpace=wrap;connectable=0;fillColor=none;top=0;left=0;bottom=0;right=0;overflow=hidden;pointerEvents=1;fontColor=#000000;strokeColor=#000000;fontSize=5;" vertex="1" parent="31">
                    <mxGeometry x="299" width="24" height="39" as="geometry">
                        <mxRectangle width="24" height="39" as="alternateBounds"/>
                    </mxGeometry>
                </mxCell>
                <mxCell id="110" style="shape=partialRectangle;html=1;whiteSpace=wrap;connectable=0;fillColor=none;top=0;left=0;bottom=0;right=0;overflow=hidden;pointerEvents=1;fontColor=#000000;strokeColor=#000000;fontSize=5;" vertex="1" parent="31">
                    <mxGeometry x="323" width="25" height="39" as="geometry">
                        <mxRectangle width="25" height="39" as="alternateBounds"/>
                    </mxGeometry>
                </mxCell>
                <mxCell id="102" style="shape=partialRectangle;html=1;whiteSpace=wrap;connectable=0;fillColor=none;top=0;left=0;bottom=0;right=0;overflow=hidden;pointerEvents=1;fontColor=#000000;strokeColor=#000000;fontSize=5;" vertex="1" parent="31">
                    <mxGeometry x="348" width="24" height="39" as="geometry">
                        <mxRectangle width="24" height="39" as="alternateBounds"/>
                    </mxGeometry>
                </mxCell>
                <mxCell id="211" style="shape=partialRectangle;html=1;whiteSpace=wrap;connectable=0;fillColor=none;top=0;left=0;bottom=0;right=0;overflow=hidden;pointerEvents=1;fontColor=#000000;strokeColor=#000000;fontSize=5;" vertex="1" parent="31">
                    <mxGeometry x="372" width="25" height="39" as="geometry">
                        <mxRectangle width="25" height="39" as="alternateBounds"/>
                    </mxGeometry>
                </mxCell>
                <mxCell id="182" style="shape=partialRectangle;html=1;whiteSpace=wrap;connectable=0;fillColor=none;top=0;left=0;bottom=0;right=0;overflow=hidden;pointerEvents=1;fontColor=#000000;strokeColor=#000000;fontSize=5;" vertex="1" parent="31">
                    <mxGeometry x="397" width="25" height="39" as="geometry">
                        <mxRectangle width="25" height="39" as="alternateBounds"/>
                    </mxGeometry>
                </mxCell>
                <mxCell id="174" style="shape=partialRectangle;html=1;whiteSpace=wrap;connectable=0;fillColor=none;top=0;left=0;bottom=0;right=0;overflow=hidden;pointerEvents=1;fontColor=#000000;strokeColor=#000000;fontSize=5;" vertex="1" parent="31">
                    <mxGeometry x="422" width="23" height="39" as="geometry">
                        <mxRectangle width="23" height="39" as="alternateBounds"/>
                    </mxGeometry>
                </mxCell>
                <mxCell id="166" style="shape=partialRectangle;html=1;whiteSpace=wrap;connectable=0;fillColor=none;top=0;left=0;bottom=0;right=0;overflow=hidden;pointerEvents=1;fontColor=#000000;strokeColor=#000000;fontSize=5;" vertex="1" parent="31">
                    <mxGeometry x="445" width="24" height="39" as="geometry">
                        <mxRectangle width="24" height="39" as="alternateBounds"/>
                    </mxGeometry>
                </mxCell>
                <mxCell id="158" style="shape=partialRectangle;html=1;whiteSpace=wrap;connectable=0;fillColor=none;top=0;left=0;bottom=0;right=0;overflow=hidden;pointerEvents=1;fontColor=#000000;strokeColor=#000000;fontSize=5;" vertex="1" parent="31">
                    <mxGeometry x="469" width="23" height="39" as="geometry">
                        <mxRectangle width="23" height="39" as="alternateBounds"/>
                    </mxGeometry>
                </mxCell>
                <mxCell id="235" style="shape=partialRectangle;html=1;whiteSpace=wrap;connectable=0;fillColor=none;top=0;left=0;bottom=0;right=0;overflow=hidden;pointerEvents=1;fontColor=#000000;strokeColor=#000000;fontSize=5;" vertex="1" parent="31">
                    <mxGeometry x="492" width="24" height="39" as="geometry">
                        <mxRectangle width="24" height="39" as="alternateBounds"/>
                    </mxGeometry>
                </mxCell>
                <mxCell id="243" style="shape=partialRectangle;html=1;whiteSpace=wrap;connectable=0;fillColor=none;top=0;left=0;bottom=0;right=0;overflow=hidden;pointerEvents=1;fontColor=#000000;strokeColor=#000000;fontSize=5;" vertex="1" parent="31">
                    <mxGeometry x="516" width="25" height="39" as="geometry">
                        <mxRectangle width="25" height="39" as="alternateBounds"/>
                    </mxGeometry>
                </mxCell>
                <mxCell id="251" style="shape=partialRectangle;html=1;whiteSpace=wrap;connectable=0;fillColor=none;top=0;left=0;bottom=0;right=0;overflow=hidden;pointerEvents=1;fontColor=#000000;strokeColor=#000000;fontSize=5;" vertex="1" parent="31">
                    <mxGeometry x="541" width="27" height="39" as="geometry">
                        <mxRectangle width="27" height="39" as="alternateBounds"/>
                    </mxGeometry>
                </mxCell>
                <mxCell id="150" style="shape=partialRectangle;html=1;whiteSpace=wrap;connectable=0;fillColor=none;top=0;left=0;bottom=0;right=0;overflow=hidden;pointerEvents=1;fontColor=#000000;strokeColor=#000000;fontSize=5;" vertex="1" parent="31">
                    <mxGeometry x="568" width="23" height="39" as="geometry">
                        <mxRectangle width="23" height="39" as="alternateBounds"/>
                    </mxGeometry>
                </mxCell>
                <mxCell id="227" style="shape=partialRectangle;html=1;whiteSpace=wrap;connectable=0;fillColor=none;top=0;left=0;bottom=0;right=0;overflow=hidden;pointerEvents=1;fontColor=#000000;strokeColor=#000000;fontSize=5;" vertex="1" parent="31">
                    <mxGeometry x="591" width="25" height="39" as="geometry">
                        <mxRectangle width="25" height="39" as="alternateBounds"/>
                    </mxGeometry>
                </mxCell>
                <mxCell id="14" value="" style="shape=partialRectangle;html=1;whiteSpace=wrap;collapsible=0;dropTarget=0;pointerEvents=0;fillColor=none;top=0;left=0;bottom=0;right=0;points=[[0,0.5],[1,0.5]];portConstraint=eastwest;fontColor=#000000;strokeColor=#000000;fontSize=5;" vertex="1" parent="9">
                    <mxGeometry y="226" width="616" height="37" as="geometry"/>
                </mxCell>
                <mxCell id="15" value="Friday" style="shape=partialRectangle;html=1;whiteSpace=wrap;connectable=0;fillColor=none;top=0;left=0;bottom=0;right=0;overflow=hidden;pointerEvents=1;fontColor=#000000;strokeColor=#000000;fontSize=5;" vertex="1" parent="14">
                    <mxGeometry width="24" height="37" as="geometry">
                        <mxRectangle width="24" height="37" as="alternateBounds"/>
                    </mxGeometry>
                </mxCell>
                <mxCell id="16" value="" style="shape=partialRectangle;html=1;whiteSpace=wrap;connectable=0;fillColor=none;top=0;left=0;bottom=0;right=0;overflow=hidden;pointerEvents=1;fontColor=#000000;strokeColor=#000000;fontSize=5;" vertex="1" parent="14">
                    <mxGeometry x="24" width="27" height="37" as="geometry">
                        <mxRectangle width="27" height="37" as="alternateBounds"/>
                    </mxGeometry>
                </mxCell>
                <mxCell id="17" value="" style="shape=partialRectangle;html=1;whiteSpace=wrap;connectable=0;fillColor=none;top=0;left=0;bottom=0;right=0;overflow=hidden;pointerEvents=1;fontColor=#000000;strokeColor=#000000;fontSize=5;" vertex="1" parent="14">
                    <mxGeometry x="51" width="25" height="37" as="geometry">
                        <mxRectangle width="25" height="37" as="alternateBounds"/>
                    </mxGeometry>
                </mxCell>
                <mxCell id="29" style="shape=partialRectangle;html=1;whiteSpace=wrap;connectable=0;fillColor=none;top=0;left=0;bottom=0;right=0;overflow=hidden;pointerEvents=1;fontColor=#000000;strokeColor=#000000;fontSize=5;" vertex="1" parent="14">
                    <mxGeometry x="76" width="24" height="37" as="geometry">
                        <mxRectangle width="24" height="37" as="alternateBounds"/>
                    </mxGeometry>
                </mxCell>
                <mxCell id="26" style="shape=partialRectangle;html=1;whiteSpace=wrap;connectable=0;fillColor=none;top=0;left=0;bottom=0;right=0;overflow=hidden;pointerEvents=1;fontColor=#000000;strokeColor=#000000;fontSize=5;" vertex="1" parent="14">
                    <mxGeometry x="100" width="25" height="37" as="geometry">
                        <mxRectangle width="25" height="37" as="alternateBounds"/>
                    </mxGeometry>
                </mxCell>
                <mxCell id="23" style="shape=partialRectangle;html=1;whiteSpace=wrap;connectable=0;fillColor=none;top=0;left=0;bottom=0;right=0;overflow=hidden;pointerEvents=1;fontColor=#000000;strokeColor=#000000;fontSize=5;" vertex="1" parent="14">
                    <mxGeometry x="125" width="25" height="37" as="geometry">
                        <mxRectangle width="25" height="37" as="alternateBounds"/>
                    </mxGeometry>
                </mxCell>
                <mxCell id="95" style="shape=partialRectangle;html=1;whiteSpace=wrap;connectable=0;fillColor=none;top=0;left=0;bottom=0;right=0;overflow=hidden;pointerEvents=1;fontColor=#000000;strokeColor=#000000;fontSize=5;" vertex="1" parent="14">
                    <mxGeometry x="150" width="24" height="37" as="geometry">
                        <mxRectangle width="24" height="37" as="alternateBounds"/>
                    </mxGeometry>
                </mxCell>
                <mxCell id="87" style="shape=partialRectangle;html=1;whiteSpace=wrap;connectable=0;fillColor=none;top=0;left=0;bottom=0;right=0;overflow=hidden;pointerEvents=1;fontColor=#000000;strokeColor=#000000;fontSize=5;" vertex="1" parent="14">
                    <mxGeometry x="174" width="26" height="37" as="geometry">
                        <mxRectangle width="26" height="37" as="alternateBounds"/>
                    </mxGeometry>
                </mxCell>
                <mxCell id="79" style="shape=partialRectangle;html=1;whiteSpace=wrap;connectable=0;fillColor=none;top=0;left=0;bottom=0;right=0;overflow=hidden;pointerEvents=1;fontColor=#000000;strokeColor=#000000;fontSize=5;" vertex="1" parent="14">
                    <mxGeometry x="200" width="27" height="37" as="geometry">
                        <mxRectangle width="27" height="37" as="alternateBounds"/>
                    </mxGeometry>
                </mxCell>
                <mxCell id="143" style="shape=partialRectangle;html=1;whiteSpace=wrap;connectable=0;fillColor=none;top=0;left=0;bottom=0;right=0;overflow=hidden;pointerEvents=1;fontColor=#000000;strokeColor=#000000;fontSize=5;" vertex="1" parent="14">
                    <mxGeometry x="227" width="25" height="37" as="geometry">
                        <mxRectangle width="25" height="37" as="alternateBounds"/>
                    </mxGeometry>
                </mxCell>
                <mxCell id="135" style="shape=partialRectangle;html=1;whiteSpace=wrap;connectable=0;fillColor=none;top=0;left=0;bottom=0;right=0;overflow=hidden;pointerEvents=1;fontColor=#000000;strokeColor=#000000;fontSize=5;" vertex="1" parent="14">
                    <mxGeometry x="252" width="23" height="37" as="geometry">
                        <mxRectangle width="23" height="37" as="alternateBounds"/>
                    </mxGeometry>
                </mxCell>
                <mxCell id="127" style="shape=partialRectangle;html=1;whiteSpace=wrap;connectable=0;fillColor=none;top=0;left=0;bottom=0;right=0;overflow=hidden;pointerEvents=1;fontColor=#000000;strokeColor=#000000;fontSize=5;" vertex="1" parent="14">
                    <mxGeometry x="275" width="24" height="37" as="geometry">
                        <mxRectangle width="24" height="37" as="alternateBounds"/>
                    </mxGeometry>
                </mxCell>
                <mxCell id="119" style="shape=partialRectangle;html=1;whiteSpace=wrap;connectable=0;fillColor=none;top=0;left=0;bottom=0;right=0;overflow=hidden;pointerEvents=1;fontColor=#000000;strokeColor=#000000;fontSize=5;" vertex="1" parent="14">
                    <mxGeometry x="299" width="24" height="37" as="geometry">
                        <mxRectangle width="24" height="37" as="alternateBounds"/>
                    </mxGeometry>
                </mxCell>
                <mxCell id="111" style="shape=partialRectangle;html=1;whiteSpace=wrap;connectable=0;fillColor=none;top=0;left=0;bottom=0;right=0;overflow=hidden;pointerEvents=1;fontColor=#000000;strokeColor=#000000;fontSize=5;" vertex="1" parent="14">
                    <mxGeometry x="323" width="25" height="37" as="geometry">
                        <mxRectangle width="25" height="37" as="alternateBounds"/>
                    </mxGeometry>
                </mxCell>
                <mxCell id="103" style="shape=partialRectangle;html=1;whiteSpace=wrap;connectable=0;fillColor=none;top=0;left=0;bottom=0;right=0;overflow=hidden;pointerEvents=1;fontColor=#000000;strokeColor=#000000;fontSize=5;" vertex="1" parent="14">
                    <mxGeometry x="348" width="24" height="37" as="geometry">
                        <mxRectangle width="24" height="37" as="alternateBounds"/>
                    </mxGeometry>
                </mxCell>
                <mxCell id="212" style="shape=partialRectangle;html=1;whiteSpace=wrap;connectable=0;fillColor=none;top=0;left=0;bottom=0;right=0;overflow=hidden;pointerEvents=1;fontColor=#000000;strokeColor=#000000;fontSize=5;" vertex="1" parent="14">
                    <mxGeometry x="372" width="25" height="37" as="geometry">
                        <mxRectangle width="25" height="37" as="alternateBounds"/>
                    </mxGeometry>
                </mxCell>
                <mxCell id="183" style="shape=partialRectangle;html=1;whiteSpace=wrap;connectable=0;fillColor=none;top=0;left=0;bottom=0;right=0;overflow=hidden;pointerEvents=1;fontColor=#000000;strokeColor=#000000;fontSize=5;" vertex="1" parent="14">
                    <mxGeometry x="397" width="25" height="37" as="geometry">
                        <mxRectangle width="25" height="37" as="alternateBounds"/>
                    </mxGeometry>
                </mxCell>
                <mxCell id="175" style="shape=partialRectangle;html=1;whiteSpace=wrap;connectable=0;fillColor=none;top=0;left=0;bottom=0;right=0;overflow=hidden;pointerEvents=1;fontColor=#000000;strokeColor=#000000;fontSize=5;" vertex="1" parent="14">
                    <mxGeometry x="422" width="23" height="37" as="geometry">
                        <mxRectangle width="23" height="37" as="alternateBounds"/>
                    </mxGeometry>
                </mxCell>
                <mxCell id="167" style="shape=partialRectangle;html=1;whiteSpace=wrap;connectable=0;fillColor=none;top=0;left=0;bottom=0;right=0;overflow=hidden;pointerEvents=1;fontColor=#000000;strokeColor=#000000;fontSize=5;" vertex="1" parent="14">
                    <mxGeometry x="445" width="24" height="37" as="geometry">
                        <mxRectangle width="24" height="37" as="alternateBounds"/>
                    </mxGeometry>
                </mxCell>
                <mxCell id="159" style="shape=partialRectangle;html=1;whiteSpace=wrap;connectable=0;fillColor=none;top=0;left=0;bottom=0;right=0;overflow=hidden;pointerEvents=1;fontColor=#000000;strokeColor=#000000;fontSize=5;" vertex="1" parent="14">
                    <mxGeometry x="469" width="23" height="37" as="geometry">
                        <mxRectangle width="23" height="37" as="alternateBounds"/>
                    </mxGeometry>
                </mxCell>
                <mxCell id="236" style="shape=partialRectangle;html=1;whiteSpace=wrap;connectable=0;fillColor=none;top=0;left=0;bottom=0;right=0;overflow=hidden;pointerEvents=1;fontColor=#000000;strokeColor=#000000;fontSize=5;" vertex="1" parent="14">
                    <mxGeometry x="492" width="24" height="37" as="geometry">
                        <mxRectangle width="24" height="37" as="alternateBounds"/>
                    </mxGeometry>
                </mxCell>
                <mxCell id="244" style="shape=partialRectangle;html=1;whiteSpace=wrap;connectable=0;fillColor=none;top=0;left=0;bottom=0;right=0;overflow=hidden;pointerEvents=1;fontColor=#000000;strokeColor=#000000;fontSize=5;" vertex="1" parent="14">
                    <mxGeometry x="516" width="25" height="37" as="geometry">
                        <mxRectangle width="25" height="37" as="alternateBounds"/>
                    </mxGeometry>
                </mxCell>
                <mxCell id="252" style="shape=partialRectangle;html=1;whiteSpace=wrap;connectable=0;fillColor=none;top=0;left=0;bottom=0;right=0;overflow=hidden;pointerEvents=1;fontColor=#000000;strokeColor=#000000;fontSize=5;" vertex="1" parent="14">
                    <mxGeometry x="541" width="27" height="37" as="geometry">
                        <mxRectangle width="27" height="37" as="alternateBounds"/>
                    </mxGeometry>
                </mxCell>
                <mxCell id="151" style="shape=partialRectangle;html=1;whiteSpace=wrap;connectable=0;fillColor=none;top=0;left=0;bottom=0;right=0;overflow=hidden;pointerEvents=1;fontColor=#000000;strokeColor=#000000;fontSize=5;" vertex="1" parent="14">
                    <mxGeometry x="568" width="23" height="37" as="geometry">
                        <mxRectangle width="23" height="37" as="alternateBounds"/>
                    </mxGeometry>
                </mxCell>
                <mxCell id="228" style="shape=partialRectangle;html=1;whiteSpace=wrap;connectable=0;fillColor=none;top=0;left=0;bottom=0;right=0;overflow=hidden;pointerEvents=1;fontColor=#000000;strokeColor=#000000;fontSize=5;" vertex="1" parent="14">
                    <mxGeometry x="591" width="25" height="37" as="geometry">
                        <mxRectangle width="25" height="37" as="alternateBounds"/>
                    </mxGeometry>
                </mxCell>
                <mxCell id="18" value="" style="shape=partialRectangle;html=1;whiteSpace=wrap;collapsible=0;dropTarget=0;pointerEvents=0;fillColor=none;top=0;left=0;bottom=0;right=0;points=[[0,0.5],[1,0.5]];portConstraint=eastwest;fontColor=#000000;strokeColor=#000000;fontSize=5;" vertex="1" parent="9">
                    <mxGeometry y="263" width="616" height="37" as="geometry"/>
                </mxCell>
                <mxCell id="19" value="Saturday" style="shape=partialRectangle;html=1;whiteSpace=wrap;connectable=0;fillColor=none;top=0;left=0;bottom=0;right=0;overflow=hidden;pointerEvents=1;fontColor=#000000;strokeColor=#000000;fontSize=5;" vertex="1" parent="18">
                    <mxGeometry width="24" height="37" as="geometry">
                        <mxRectangle width="24" height="37" as="alternateBounds"/>
                    </mxGeometry>
                </mxCell>
                <mxCell id="20" value="" style="shape=partialRectangle;html=1;whiteSpace=wrap;connectable=0;fillColor=none;top=0;left=0;bottom=0;right=0;overflow=hidden;pointerEvents=1;fontColor=#000000;strokeColor=#000000;fontSize=5;" vertex="1" parent="18">
                    <mxGeometry x="24" width="27" height="37" as="geometry">
                        <mxRectangle width="27" height="37" as="alternateBounds"/>
                    </mxGeometry>
                </mxCell>
                <mxCell id="21" value="" style="shape=partialRectangle;html=1;whiteSpace=wrap;connectable=0;fillColor=none;top=0;left=0;bottom=0;right=0;overflow=hidden;pointerEvents=1;fontColor=#000000;strokeColor=#000000;fontSize=5;" vertex="1" parent="18">
                    <mxGeometry x="51" width="25" height="37" as="geometry">
                        <mxRectangle width="25" height="37" as="alternateBounds"/>
                    </mxGeometry>
                </mxCell>
                <mxCell id="30" style="shape=partialRectangle;html=1;whiteSpace=wrap;connectable=0;fillColor=none;top=0;left=0;bottom=0;right=0;overflow=hidden;pointerEvents=1;fontColor=#000000;strokeColor=#000000;fontSize=5;" vertex="1" parent="18">
                    <mxGeometry x="76" width="24" height="37" as="geometry">
                        <mxRectangle width="24" height="37" as="alternateBounds"/>
                    </mxGeometry>
                </mxCell>
                <mxCell id="27" style="shape=partialRectangle;html=1;whiteSpace=wrap;connectable=0;fillColor=none;top=0;left=0;bottom=0;right=0;overflow=hidden;pointerEvents=1;fontColor=#000000;strokeColor=#000000;fontSize=5;" vertex="1" parent="18">
                    <mxGeometry x="100" width="25" height="37" as="geometry">
                        <mxRectangle width="25" height="37" as="alternateBounds"/>
                    </mxGeometry>
                </mxCell>
                <mxCell id="24" style="shape=partialRectangle;html=1;whiteSpace=wrap;connectable=0;fillColor=none;top=0;left=0;bottom=0;right=0;overflow=hidden;pointerEvents=1;fontColor=#000000;strokeColor=#000000;fontSize=5;" vertex="1" parent="18">
                    <mxGeometry x="125" width="25" height="37" as="geometry">
                        <mxRectangle width="25" height="37" as="alternateBounds"/>
                    </mxGeometry>
                </mxCell>
                <mxCell id="96" style="shape=partialRectangle;html=1;whiteSpace=wrap;connectable=0;fillColor=none;top=0;left=0;bottom=0;right=0;overflow=hidden;pointerEvents=1;fontColor=#000000;strokeColor=#000000;fontSize=5;" vertex="1" parent="18">
                    <mxGeometry x="150" width="24" height="37" as="geometry">
                        <mxRectangle width="24" height="37" as="alternateBounds"/>
                    </mxGeometry>
                </mxCell>
                <mxCell id="88" style="shape=partialRectangle;html=1;whiteSpace=wrap;connectable=0;fillColor=none;top=0;left=0;bottom=0;right=0;overflow=hidden;pointerEvents=1;fontColor=#000000;strokeColor=#000000;fontSize=5;" vertex="1" parent="18">
                    <mxGeometry x="174" width="26" height="37" as="geometry">
                        <mxRectangle width="26" height="37" as="alternateBounds"/>
                    </mxGeometry>
                </mxCell>
                <mxCell id="80" style="shape=partialRectangle;html=1;whiteSpace=wrap;connectable=0;fillColor=none;top=0;left=0;bottom=0;right=0;overflow=hidden;pointerEvents=1;fontColor=#000000;strokeColor=#000000;fontSize=5;" vertex="1" parent="18">
                    <mxGeometry x="200" width="27" height="37" as="geometry">
                        <mxRectangle width="27" height="37" as="alternateBounds"/>
                    </mxGeometry>
                </mxCell>
                <mxCell id="144" style="shape=partialRectangle;html=1;whiteSpace=wrap;connectable=0;fillColor=none;top=0;left=0;bottom=0;right=0;overflow=hidden;pointerEvents=1;fontColor=#000000;strokeColor=#000000;fontSize=5;" vertex="1" parent="18">
                    <mxGeometry x="227" width="25" height="37" as="geometry">
                        <mxRectangle width="25" height="37" as="alternateBounds"/>
                    </mxGeometry>
                </mxCell>
                <mxCell id="136" style="shape=partialRectangle;html=1;whiteSpace=wrap;connectable=0;fillColor=none;top=0;left=0;bottom=0;right=0;overflow=hidden;pointerEvents=1;fontColor=#000000;strokeColor=#000000;fontSize=5;" vertex="1" parent="18">
                    <mxGeometry x="252" width="23" height="37" as="geometry">
                        <mxRectangle width="23" height="37" as="alternateBounds"/>
                    </mxGeometry>
                </mxCell>
                <mxCell id="128" style="shape=partialRectangle;html=1;whiteSpace=wrap;connectable=0;fillColor=none;top=0;left=0;bottom=0;right=0;overflow=hidden;pointerEvents=1;fontColor=#000000;strokeColor=#000000;fontSize=5;" vertex="1" parent="18">
                    <mxGeometry x="275" width="24" height="37" as="geometry">
                        <mxRectangle width="24" height="37" as="alternateBounds"/>
                    </mxGeometry>
                </mxCell>
                <mxCell id="120" style="shape=partialRectangle;html=1;whiteSpace=wrap;connectable=0;fillColor=none;top=0;left=0;bottom=0;right=0;overflow=hidden;pointerEvents=1;fontColor=#000000;strokeColor=#000000;fontSize=5;" vertex="1" parent="18">
                    <mxGeometry x="299" width="24" height="37" as="geometry">
                        <mxRectangle width="24" height="37" as="alternateBounds"/>
                    </mxGeometry>
                </mxCell>
                <mxCell id="112" style="shape=partialRectangle;html=1;whiteSpace=wrap;connectable=0;fillColor=none;top=0;left=0;bottom=0;right=0;overflow=hidden;pointerEvents=1;fontColor=#000000;strokeColor=#000000;fontSize=5;" vertex="1" parent="18">
                    <mxGeometry x="323" width="25" height="37" as="geometry">
                        <mxRectangle width="25" height="37" as="alternateBounds"/>
                    </mxGeometry>
                </mxCell>
                <mxCell id="104" style="shape=partialRectangle;html=1;whiteSpace=wrap;connectable=0;fillColor=none;top=0;left=0;bottom=0;right=0;overflow=hidden;pointerEvents=1;fontColor=#000000;strokeColor=#000000;fontSize=5;" vertex="1" parent="18">
                    <mxGeometry x="348" width="24" height="37" as="geometry">
                        <mxRectangle width="24" height="37" as="alternateBounds"/>
                    </mxGeometry>
                </mxCell>
                <mxCell id="213" style="shape=partialRectangle;html=1;whiteSpace=wrap;connectable=0;fillColor=none;top=0;left=0;bottom=0;right=0;overflow=hidden;pointerEvents=1;fontColor=#000000;strokeColor=#000000;fontSize=5;" vertex="1" parent="18">
                    <mxGeometry x="372" width="25" height="37" as="geometry">
                        <mxRectangle width="25" height="37" as="alternateBounds"/>
                    </mxGeometry>
                </mxCell>
                <mxCell id="184" style="shape=partialRectangle;html=1;whiteSpace=wrap;connectable=0;fillColor=none;top=0;left=0;bottom=0;right=0;overflow=hidden;pointerEvents=1;fontColor=#000000;strokeColor=#000000;fontSize=5;" vertex="1" parent="18">
                    <mxGeometry x="397" width="25" height="37" as="geometry">
                        <mxRectangle width="25" height="37" as="alternateBounds"/>
                    </mxGeometry>
                </mxCell>
                <mxCell id="176" style="shape=partialRectangle;html=1;whiteSpace=wrap;connectable=0;fillColor=none;top=0;left=0;bottom=0;right=0;overflow=hidden;pointerEvents=1;fontColor=#000000;strokeColor=#000000;fontSize=5;" vertex="1" parent="18">
                    <mxGeometry x="422" width="23" height="37" as="geometry">
                        <mxRectangle width="23" height="37" as="alternateBounds"/>
                    </mxGeometry>
                </mxCell>
                <mxCell id="168" style="shape=partialRectangle;html=1;whiteSpace=wrap;connectable=0;fillColor=none;top=0;left=0;bottom=0;right=0;overflow=hidden;pointerEvents=1;fontColor=#000000;strokeColor=#000000;fontSize=5;" vertex="1" parent="18">
                    <mxGeometry x="445" width="24" height="37" as="geometry">
                        <mxRectangle width="24" height="37" as="alternateBounds"/>
                    </mxGeometry>
                </mxCell>
                <mxCell id="160" style="shape=partialRectangle;html=1;whiteSpace=wrap;connectable=0;fillColor=none;top=0;left=0;bottom=0;right=0;overflow=hidden;pointerEvents=1;fontColor=#000000;strokeColor=#000000;fontSize=5;" vertex="1" parent="18">
                    <mxGeometry x="469" width="23" height="37" as="geometry">
                        <mxRectangle width="23" height="37" as="alternateBounds"/>
                    </mxGeometry>
                </mxCell>
                <mxCell id="237" style="shape=partialRectangle;html=1;whiteSpace=wrap;connectable=0;fillColor=none;top=0;left=0;bottom=0;right=0;overflow=hidden;pointerEvents=1;fontColor=#000000;strokeColor=#000000;fontSize=5;" vertex="1" parent="18">
                    <mxGeometry x="492" width="24" height="37" as="geometry">
                        <mxRectangle width="24" height="37" as="alternateBounds"/>
                    </mxGeometry>
                </mxCell>
                <mxCell id="245" style="shape=partialRectangle;html=1;whiteSpace=wrap;connectable=0;fillColor=none;top=0;left=0;bottom=0;right=0;overflow=hidden;pointerEvents=1;fontColor=#000000;strokeColor=#000000;fontSize=5;" vertex="1" parent="18">
                    <mxGeometry x="516" width="25" height="37" as="geometry">
                        <mxRectangle width="25" height="37" as="alternateBounds"/>
                    </mxGeometry>
                </mxCell>
                <mxCell id="253" style="shape=partialRectangle;html=1;whiteSpace=wrap;connectable=0;fillColor=none;top=0;left=0;bottom=0;right=0;overflow=hidden;pointerEvents=1;fontColor=#000000;strokeColor=#000000;fontSize=5;" vertex="1" parent="18">
                    <mxGeometry x="541" width="27" height="37" as="geometry">
                        <mxRectangle width="27" height="37" as="alternateBounds"/>
                    </mxGeometry>
                </mxCell>
                <mxCell id="152" style="shape=partialRectangle;html=1;whiteSpace=wrap;connectable=0;fillColor=none;top=0;left=0;bottom=0;right=0;overflow=hidden;pointerEvents=1;fontColor=#000000;strokeColor=#000000;fontSize=5;" vertex="1" parent="18">
                    <mxGeometry x="568" width="23" height="37" as="geometry">
                        <mxRectangle width="23" height="37" as="alternateBounds"/>
                    </mxGeometry>
                </mxCell>
                <mxCell id="229" style="shape=partialRectangle;html=1;whiteSpace=wrap;connectable=0;fillColor=none;top=0;left=0;bottom=0;right=0;overflow=hidden;pointerEvents=1;fontColor=#000000;strokeColor=#000000;fontSize=5;" vertex="1" parent="18">
                    <mxGeometry x="591" width="25" height="37" as="geometry">
                        <mxRectangle width="25" height="37" as="alternateBounds"/>
                    </mxGeometry>
                </mxCell>
                <mxCell id="256" value="Load" style="rounded=0;whiteSpace=wrap;html=1;fontSize=5;fontColor=#000000;strokeColor=#050505;fillColor=#FFFFFF;" vertex="1" parent="1">
                    <mxGeometry x="756.5" y="110" width="30" height="13" as="geometry"/>
                </mxCell>
                <mxCell id="262" value="" style="group" vertex="1" connectable="0" parent="1">
                    <mxGeometry x="696.5" y="130" width="150" height="13" as="geometry"/>
                </mxCell>
                <mxCell id="257" value="Play" style="rounded=0;whiteSpace=wrap;html=1;fontSize=5;fontColor=#000000;strokeColor=#050505;fillColor=#FFFFFF;" vertex="1" parent="262">
                    <mxGeometry x="60" width="30" height="13" as="geometry"/>
                </mxCell>
                <mxCell id="258" value="Pause" style="rounded=0;whiteSpace=wrap;html=1;fontSize=5;fontColor=#000000;strokeColor=#050505;fillColor=#FFFFFF;" vertex="1" parent="262">
                    <mxGeometry x="90" width="30" height="13" as="geometry"/>
                </mxCell>
                <mxCell id="259" value="Next" style="rounded=0;whiteSpace=wrap;html=1;fontSize=5;fontColor=#000000;strokeColor=#050505;fillColor=#FFFFFF;" vertex="1" parent="262">
                    <mxGeometry x="120" width="30" height="13" as="geometry"/>
                </mxCell>
                <mxCell id="260" value="Prev" style="rounded=0;whiteSpace=wrap;html=1;fontSize=5;fontColor=#000000;strokeColor=#050505;fillColor=#FFFFFF;" vertex="1" parent="262">
                    <mxGeometry width="30" height="13" as="geometry"/>
                </mxCell>
                <mxCell id="261" value="Stop" style="rounded=0;whiteSpace=wrap;html=1;fontSize=5;fontColor=#000000;strokeColor=#050505;fillColor=#FFFFFF;" vertex="1" parent="262">
                    <mxGeometry x="30" width="30" height="13" as="geometry"/>
                </mxCell>
                <mxCell id="264" value="" style="shape=table;html=1;whiteSpace=wrap;startSize=0;container=1;collapsible=0;childLayout=tableLayout;fontSize=5;fontColor=#000000;strokeColor=#050505;fillColor=#FFFFFF;" vertex="1" parent="1">
                    <mxGeometry x="700" y="160" width="140" height="240" as="geometry"/>
                </mxCell>
                <mxCell id="265" value="" style="shape=partialRectangle;html=1;whiteSpace=wrap;collapsible=0;dropTarget=0;pointerEvents=0;fillColor=none;top=0;left=0;bottom=0;right=0;points=[[0,0.5],[1,0.5]];portConstraint=eastwest;fontSize=5;fontColor=#000000;strokeColor=#050505;" vertex="1" parent="264">
                    <mxGeometry width="140" height="40" as="geometry"/>
                </mxCell>
                <mxCell id="267" value="" style="shape=partialRectangle;html=1;whiteSpace=wrap;connectable=0;fillColor=none;top=0;left=0;bottom=0;right=0;overflow=hidden;pointerEvents=1;fontSize=5;fontColor=#000000;strokeColor=#050505;" vertex="1" parent="265">
                    <mxGeometry width="110" height="40" as="geometry">
                        <mxRectangle width="110" height="40" as="alternateBounds"/>
                    </mxGeometry>
                </mxCell>
                <mxCell id="268" value="" style="shape=partialRectangle;html=1;whiteSpace=wrap;connectable=0;fillColor=none;top=0;left=0;bottom=0;right=0;overflow=hidden;pointerEvents=1;fontSize=5;fontColor=#000000;strokeColor=#050505;" vertex="1" parent="265">
                    <mxGeometry x="110" width="30" height="40" as="geometry">
                        <mxRectangle width="30" height="40" as="alternateBounds"/>
                    </mxGeometry>
                </mxCell>
                <mxCell id="269" value="" style="shape=partialRectangle;html=1;whiteSpace=wrap;collapsible=0;dropTarget=0;pointerEvents=0;fillColor=none;top=0;left=0;bottom=0;right=0;points=[[0,0.5],[1,0.5]];portConstraint=eastwest;fontSize=5;fontColor=#000000;strokeColor=#050505;" vertex="1" parent="264">
                    <mxGeometry y="40" width="140" height="40" as="geometry"/>
                </mxCell>
                <mxCell id="271" value="" style="shape=partialRectangle;html=1;whiteSpace=wrap;connectable=0;fillColor=none;top=0;left=0;bottom=0;right=0;overflow=hidden;pointerEvents=1;fontSize=5;fontColor=#000000;strokeColor=#050505;" vertex="1" parent="269">
                    <mxGeometry width="110" height="40" as="geometry">
                        <mxRectangle width="110" height="40" as="alternateBounds"/>
                    </mxGeometry>
                </mxCell>
                <mxCell id="272" value="" style="shape=partialRectangle;html=1;whiteSpace=wrap;connectable=0;fillColor=none;top=0;left=0;bottom=0;right=0;overflow=hidden;pointerEvents=1;fontSize=5;fontColor=#000000;strokeColor=#050505;" vertex="1" parent="269">
                    <mxGeometry x="110" width="30" height="40" as="geometry">
                        <mxRectangle width="30" height="40" as="alternateBounds"/>
                    </mxGeometry>
                </mxCell>
                <mxCell id="273" value="" style="shape=partialRectangle;html=1;whiteSpace=wrap;collapsible=0;dropTarget=0;pointerEvents=0;fillColor=none;top=0;left=0;bottom=0;right=0;points=[[0,0.5],[1,0.5]];portConstraint=eastwest;fontSize=5;fontColor=#000000;strokeColor=#050505;" vertex="1" parent="264">
                    <mxGeometry y="80" width="140" height="40" as="geometry"/>
                </mxCell>
                <mxCell id="275" value="" style="shape=partialRectangle;html=1;whiteSpace=wrap;connectable=0;fillColor=none;top=0;left=0;bottom=0;right=0;overflow=hidden;pointerEvents=1;fontSize=5;fontColor=#000000;strokeColor=#050505;" vertex="1" parent="273">
                    <mxGeometry width="110" height="40" as="geometry">
                        <mxRectangle width="110" height="40" as="alternateBounds"/>
                    </mxGeometry>
                </mxCell>
                <mxCell id="276" value="" style="shape=partialRectangle;html=1;whiteSpace=wrap;connectable=0;fillColor=none;top=0;left=0;bottom=0;right=0;overflow=hidden;pointerEvents=1;fontSize=5;fontColor=#000000;strokeColor=#050505;" vertex="1" parent="273">
                    <mxGeometry x="110" width="30" height="40" as="geometry">
                        <mxRectangle width="30" height="40" as="alternateBounds"/>
                    </mxGeometry>
                </mxCell>
                <mxCell id="277" style="shape=partialRectangle;html=1;whiteSpace=wrap;collapsible=0;dropTarget=0;pointerEvents=0;fillColor=none;top=0;left=0;bottom=0;right=0;points=[[0,0.5],[1,0.5]];portConstraint=eastwest;fontSize=5;fontColor=#000000;strokeColor=#050505;" vertex="1" parent="264">
                    <mxGeometry y="120" width="140" height="40" as="geometry"/>
                </mxCell>
                <mxCell id="278" style="shape=partialRectangle;html=1;whiteSpace=wrap;connectable=0;fillColor=none;top=0;left=0;bottom=0;right=0;overflow=hidden;pointerEvents=1;fontSize=5;fontColor=#000000;strokeColor=#050505;" vertex="1" parent="277">
                    <mxGeometry width="110" height="40" as="geometry">
                        <mxRectangle width="110" height="40" as="alternateBounds"/>
                    </mxGeometry>
                </mxCell>
                <mxCell id="279" style="shape=partialRectangle;html=1;whiteSpace=wrap;connectable=0;fillColor=none;top=0;left=0;bottom=0;right=0;overflow=hidden;pointerEvents=1;fontSize=5;fontColor=#000000;strokeColor=#050505;" vertex="1" parent="277">
                    <mxGeometry x="110" width="30" height="40" as="geometry">
                        <mxRectangle width="30" height="40" as="alternateBounds"/>
                    </mxGeometry>
                </mxCell>
                <mxCell id="280" style="shape=partialRectangle;html=1;whiteSpace=wrap;collapsible=0;dropTarget=0;pointerEvents=0;fillColor=none;top=0;left=0;bottom=0;right=0;points=[[0,0.5],[1,0.5]];portConstraint=eastwest;fontSize=5;fontColor=#000000;strokeColor=#050505;" vertex="1" parent="264">
                    <mxGeometry y="160" width="140" height="40" as="geometry"/>
                </mxCell>
                <mxCell id="281" style="shape=partialRectangle;html=1;whiteSpace=wrap;connectable=0;fillColor=none;top=0;left=0;bottom=0;right=0;overflow=hidden;pointerEvents=1;fontSize=5;fontColor=#000000;strokeColor=#050505;" vertex="1" parent="280">
                    <mxGeometry width="110" height="40" as="geometry">
                        <mxRectangle width="110" height="40" as="alternateBounds"/>
                    </mxGeometry>
                </mxCell>
                <mxCell id="282" style="shape=partialRectangle;html=1;whiteSpace=wrap;connectable=0;fillColor=none;top=0;left=0;bottom=0;right=0;overflow=hidden;pointerEvents=1;fontSize=5;fontColor=#000000;strokeColor=#050505;" vertex="1" parent="280">
                    <mxGeometry x="110" width="30" height="40" as="geometry">
                        <mxRectangle width="30" height="40" as="alternateBounds"/>
                    </mxGeometry>
                </mxCell>
                <mxCell id="283" style="shape=partialRectangle;html=1;whiteSpace=wrap;collapsible=0;dropTarget=0;pointerEvents=0;fillColor=none;top=0;left=0;bottom=0;right=0;points=[[0,0.5],[1,0.5]];portConstraint=eastwest;fontSize=5;fontColor=#000000;strokeColor=#050505;" vertex="1" parent="264">
                    <mxGeometry y="200" width="140" height="40" as="geometry"/>
                </mxCell>
                <mxCell id="284" style="shape=partialRectangle;html=1;whiteSpace=wrap;connectable=0;fillColor=none;top=0;left=0;bottom=0;right=0;overflow=hidden;pointerEvents=1;fontSize=5;fontColor=#000000;strokeColor=#050505;" vertex="1" parent="283">
                    <mxGeometry width="110" height="40" as="geometry">
                        <mxRectangle width="110" height="40" as="alternateBounds"/>
                    </mxGeometry>
                </mxCell>
                <mxCell id="285" style="shape=partialRectangle;html=1;whiteSpace=wrap;connectable=0;fillColor=none;top=0;left=0;bottom=0;right=0;overflow=hidden;pointerEvents=1;fontSize=5;fontColor=#000000;strokeColor=#050505;" vertex="1" parent="283">
                    <mxGeometry x="110" width="30" height="40" as="geometry">
                        <mxRectangle width="30" height="40" as="alternateBounds"/>
                    </mxGeometry>
                </mxCell>
            </root>
        </mxGraphModel>
    </diagram>
</mxfile>